<svg width="90" height="98" viewBox="0 0 90 98" fill="none" xmlns="http://www.w3.org/2000/svg">
<path d="M82.4633 1.88745H6.87984C3.93997 1.88745 1.55664 4.2706 1.55664 7.21027V90.4891C1.55664 93.4287 3.93979 95.8119 6.87984 95.8119H82.4631C85.4029 95.8119 87.7859 93.4287 87.7859 90.4891V7.21027C87.7863 4.2706 85.4029 1.88745 82.4633 1.88745Z" fill="#1F84CE"/>
<path d="M82.4629 1.88745H6.87946C3.9396 1.88745 1.55664 4.2706 1.55664 7.21027V11.3069H87.7863V7.21027C87.7859 4.2706 85.4025 1.88745 82.4629 1.88745Z" fill="#8671F8"/>
<path d="M36.9539 49.2578C37.5071 49.2578 37.9461 48.7867 37.9018 48.2353C37.3815 41.7897 31.9857 36.7209 25.4061 36.7209C18.8264 36.7209 13.4307 41.7897 12.9103 48.2353C12.8658 48.7867 13.3049 49.2578 13.8582 49.2578H36.9539Z" fill="white"/>
<path opacity="0.15" d="M25.4055 36.7211C22.8792 36.7211 20.5281 37.4691 18.5596 38.7545C20.4093 40.3131 22.7974 41.2527 25.4055 41.2527C28.0133 41.2527 30.4018 40.3131 32.2515 38.7545C30.2834 37.4691 27.9319 36.7211 25.4055 36.7211Z" fill="#145587"/>
<path d="M25.4041 18.1967C20.2855 18.1967 16.1357 22.3464 16.1357 27.4652V30.6215C16.1357 35.7402 20.2855 39.8899 25.4041 39.8899C30.5229 39.8899 34.6724 35.7402 34.6724 30.6215V27.4652C34.6726 22.3464 30.5231 18.1967 25.4041 18.1967Z" fill="#ACDFEA"/>
<path d="M76.4376 31.4653H48.9815C48.1363 31.4653 47.4512 30.7803 47.4512 29.9349C47.4512 29.0895 48.1363 28.4045 48.9815 28.4045H76.4378C77.283 28.4045 77.9682 29.0895 77.9682 29.9349C77.968 30.7803 77.2828 31.4653 76.4376 31.4653Z" fill="white"/>
<path d="M62.7097 40.5174H48.9815C48.1363 40.5174 47.4512 39.8324 47.4512 38.987C47.4512 38.1416 48.1363 37.4567 48.9815 37.4567H62.7097C63.5549 37.4567 64.24 38.1416 64.24 38.987C64.24 39.8324 63.5547 40.5174 62.7097 40.5174Z" fill="white"/>
<path d="M36.9549 86.1027C37.508 86.1027 37.9471 85.6316 37.9028 85.0802C37.3824 78.6345 31.9867 73.566 25.4071 73.566C18.8274 73.566 13.4317 78.6345 12.9113 85.0802C12.8668 85.6316 13.3059 86.1027 13.8592 86.1027H36.9549Z" fill="white"/>
<path opacity="0.15" d="M25.4055 73.5662C22.8792 73.5662 20.5281 74.3139 18.5596 75.5995C20.4093 77.1581 22.7974 78.0974 25.4055 78.0974C28.0133 78.0974 30.4018 77.1581 32.2515 75.5995C30.2834 74.3139 27.9319 73.5662 25.4055 73.5662Z" fill="#145587"/>
<path d="M25.4041 55.0416C20.2855 55.0416 16.1357 59.1912 16.1357 64.3098V67.4661C16.1357 72.5849 20.2855 76.7347 25.4041 76.7347C30.5229 76.7347 34.6724 72.5849 34.6724 67.4661V64.3098C34.6726 59.1912 30.5231 55.0416 25.4041 55.0416Z" fill="#ACDFEA"/>
<path d="M76.4366 68.3101H48.9806C48.1353 68.3101 47.4502 67.6251 47.4502 66.7797C47.4502 65.9343 48.1353 65.2494 48.9806 65.2494H76.4368C77.282 65.2494 77.9672 65.9343 77.9672 66.7797C77.9672 67.6251 77.2818 68.3101 76.4366 68.3101Z" fill="white"/>
<path d="M62.7077 77.3621H48.9796C48.1344 77.3621 47.4492 76.6771 47.4492 75.8317C47.4492 74.9865 48.1344 74.3014 48.9796 74.3014H62.7077C63.5529 74.3014 64.2381 74.9865 64.2381 75.8317C64.2381 76.6771 63.5527 77.3621 62.7077 77.3621Z" fill="white"/>
<path d="M13.8577 50.788H36.9532C37.6442 50.788 38.3095 50.4967 38.7781 49.9887C39.2454 49.4819 39.4816 48.7981 39.4261 48.1122C39.0899 43.9479 36.874 40.142 33.5008 37.7564C35.1811 35.8521 36.2036 33.3546 36.2036 30.6212V27.4648C36.2036 21.5103 31.3595 16.666 25.405 16.666C19.4504 16.666 14.6063 21.5101 14.6063 27.4648V30.6212C14.6063 33.3544 15.629 35.8521 17.3092 37.7562C13.9361 40.1418 11.7201 43.9479 11.384 48.1122C11.3287 48.7979 11.5647 49.4821 12.032 49.9887C12.5012 50.4969 13.1665 50.788 13.8577 50.788ZM17.6674 27.4648C17.6674 23.1981 21.1386 19.7267 25.4054 19.7267C29.6721 19.7267 33.1433 23.1981 33.1433 27.4648V30.6212C33.1433 34.888 29.6721 38.3592 25.4054 38.3592C21.1386 38.3592 17.6674 34.888 17.6674 30.6212V27.4648ZM19.7524 39.8172C21.3979 40.8325 23.3342 41.4197 25.4055 41.4197C27.4769 41.4197 29.4132 40.8323 31.0587 39.8172C33.8968 41.5235 35.8462 44.451 36.3061 47.7275H14.505C14.9647 44.4512 16.9142 41.5237 19.7524 39.8172ZM13.8577 87.6328H36.9532C37.6442 87.6328 38.3095 87.3415 38.7781 86.8335C39.2454 86.3268 39.4816 85.6429 39.4261 84.957C39.0899 80.7925 36.8738 76.9866 33.5008 74.6012C35.1811 72.697 36.2036 70.1994 36.2036 67.4658V64.3097C36.2036 58.3553 31.3595 53.511 25.405 53.511C19.4504 53.511 14.6063 58.3551 14.6063 64.3097V67.4658C14.6063 70.1994 15.629 72.697 17.3096 74.6012C13.9365 76.9868 11.7203 80.7927 11.3842 84.957C11.3289 85.6427 11.5649 86.3269 12.0322 86.8335C12.5012 87.3417 13.1665 87.6328 13.8577 87.6328ZM17.6674 64.3098C17.6674 60.0431 21.1386 56.5719 25.4054 56.5719C29.6721 56.5719 33.1433 60.0431 33.1433 64.3098V67.466C33.1433 71.7328 29.6721 75.2042 25.4054 75.2042C21.1386 75.2042 17.6674 71.7328 17.6674 67.466V64.3098ZM19.7524 76.662C21.3977 77.6773 23.3342 78.2647 25.4054 78.2647C27.4765 78.2647 29.413 77.6773 31.0583 76.662C33.8965 78.3683 35.8458 81.2958 36.3057 84.5723H14.505C14.9647 81.2958 16.9142 78.3687 19.7524 76.662ZM82.463 0.357178H6.87972C3.1009 0.357178 0.0263672 3.43152 0.0263672 7.21034V90.489C0.0263672 94.2678 3.10071 97.3421 6.87972 97.3421H82.4628C86.2416 97.3421 89.316 94.2678 89.316 90.489V7.21034C89.3164 3.43152 86.242 0.357178 82.463 0.357178ZM86.2557 90.4891C86.2557 92.5804 84.5542 94.2818 82.463 94.2818H6.87972C4.78848 94.2818 3.08689 92.5804 3.08689 90.4891V12.8374H86.2557V90.4891ZM86.2557 9.77665H3.08689V7.21034C3.08689 5.1191 4.78848 3.4177 6.87972 3.4177H82.4628C84.5541 3.4177 86.2555 5.1191 86.2555 7.21034V9.77665H86.2557Z" fill="black"/>
</svg>
