<svg width="17" height="5" viewBox="0 0 17 5" fill="none" xmlns="http://www.w3.org/2000/svg">
<path d="M2.125 0C0.95625 0 0 0.95625 0 2.125C0 3.29375 0.95625 4.25 2.125 4.25C3.29375 4.25 4.25 3.29375 4.25 2.125C4.25 0.95625 3.29375 0 2.125 0ZM14.875 0C13.7063 0 12.75 0.95625 12.75 2.125C12.75 3.29375 13.7063 4.25 14.875 4.25C16.0438 4.25 17 3.29375 17 2.125C17 0.95625 16.0438 0 14.875 0ZM8.5 0C7.33125 0 6.375 0.95625 6.375 2.125C6.375 3.29375 7.33125 4.25 8.5 4.25C9.66875 4.25 10.625 3.29375 10.625 2.125C10.625 0.95625 9.66875 0 8.5 0Z" fill="#3D3C3C"/>
</svg>
