<svg width="27" height="30" viewBox="0 0 27 30" fill="none" xmlns="http://www.w3.org/2000/svg">
<g clip-path="url(#clip0)">
<path d="M26.4719 13.0442C26.5215 12.9168 26.5215 12.7734 26.4719 12.6455C26.4469 12.5813 26.4106 12.5234 26.3654 12.4749L20.475 6.2143C20.283 6.01027 19.9728 6.01027 19.7808 6.2143C19.5889 6.41832 19.5889 6.7481 19.7808 6.95213L24.8338 12.323H14.237C13.9655 12.323 13.7461 12.5563 13.7461 12.8448C13.7461 13.1334 13.9655 13.3666 14.237 13.3666H24.8338L19.7808 18.7375C19.5889 18.9416 19.5889 19.2714 19.7808 19.4754C19.8766 19.5771 20.0022 19.6283 20.1279 19.6283C20.2536 19.6283 20.3793 19.5771 20.475 19.4754L26.3654 13.2143C26.4106 13.1663 26.4469 13.1083 26.4719 13.0442Z" fill="white"/>
<path d="M17.673 15.4538C17.4016 15.4538 17.1821 15.687 17.1821 15.9756V24.3244H12.273V4.49595C12.273 4.26844 12.1346 4.06755 11.9309 3.99867L4.14407 1.36514H17.1821V9.71397C17.1821 10.0025 17.4016 10.2358 17.673 10.2358C17.9445 10.2358 18.1639 10.0025 18.1639 9.71397V0.843335C18.1639 0.554779 17.9445 0.321533 17.673 0.321533H0.98212C0.966411 0.321533 0.952665 0.32936 0.937447 0.330926C0.909956 0.333535 0.885902 0.340318 0.859884 0.347623C0.813738 0.360668 0.772502 0.37841 0.732738 0.403978C0.719975 0.412327 0.704756 0.412327 0.692484 0.421719C0.677265 0.433721 0.665484 0.448853 0.651738 0.461898C0.643393 0.470247 0.634556 0.477552 0.626702 0.486423C0.589393 0.52921 0.558956 0.576694 0.536375 0.628875C0.531956 0.639311 0.529502 0.649747 0.525575 0.660183C0.504956 0.718625 0.491211 0.779675 0.491211 0.843335V24.8462C0.491211 24.9115 0.505447 24.973 0.526556 25.0315C0.533429 25.0508 0.543738 25.067 0.552575 25.0852C0.570738 25.1223 0.591356 25.1562 0.617375 25.1875C0.631611 25.2042 0.645847 25.2193 0.661556 25.2345C0.690029 25.2611 0.721938 25.283 0.756302 25.3023C0.774465 25.3127 0.791156 25.3237 0.810793 25.3315C0.819138 25.3346 0.82552 25.3409 0.833865 25.344L11.6339 28.9966C11.682 29.0123 11.732 29.0207 11.7821 29.0207C11.8852 29.0207 11.9868 28.9862 12.0718 28.9205C12.1984 28.8224 12.273 28.6658 12.273 28.4988V25.368H17.673C17.9445 25.368 18.1639 25.1348 18.1639 24.8462V15.9756C18.1639 15.687 17.944 15.4538 17.673 15.4538ZM11.2912 27.7855L1.47303 24.4648V1.55664L11.2912 4.87739V27.7855Z" fill="white"/>
</g>
<defs>
<clipPath id="clip0">
<rect width="27" height="28.6991" fill="white" transform="translate(0 0.321533)"/>
</clipPath>
</defs>
</svg>
