<svg width="21" height="12" viewBox="0 0 21 12" fill="none" xmlns="http://www.w3.org/2000/svg">
<path d="M20.3525 4.88906C19.1915 3.40038 17.6875 2.169 16.0033 1.32815C14.2841 0.469802 12.4346 0.0244457 10.5039 0.00109096C10.4507 -0.000363655 10.2372 -0.000363655 10.1841 0.00109096C8.25337 0.0244861 6.40382 0.469802 4.68462 1.32815C3.00046 2.169 1.49658 3.40034 0.335472 4.88906C-0.111824 5.46254 -0.111824 6.26359 0.335472 6.83708C1.49654 8.32576 3.00046 9.55714 4.68462 10.398C6.40382 11.2563 8.25333 11.7017 10.1841 11.725C10.2372 11.7265 10.4507 11.7265 10.5039 11.725C12.4346 11.7016 14.2841 11.2563 16.0033 10.398C17.6875 9.55714 19.1914 8.3258 20.3525 6.83708C20.7998 6.26351 20.7998 5.46254 20.3525 4.88906ZM5.0606 9.64502C3.488 8.85985 2.08356 7.70989 0.999102 6.31947C0.789515 6.05073 0.789515 5.6754 0.999102 5.40666C2.08352 4.01625 3.48796 2.86629 5.0606 2.08112C5.50725 1.85816 5.96336 1.66534 6.4279 1.5021C5.23277 2.57641 4.4798 4.13334 4.4798 5.86305C4.4798 7.59283 5.23281 9.14988 6.42807 10.2242C5.96352 10.0609 5.50729 9.86802 5.0606 9.64502ZM10.344 10.8856C7.57451 10.8856 5.32138 8.63252 5.32138 5.86301C5.32138 3.09349 7.57451 0.840406 10.344 0.840406C13.1135 0.840406 15.3667 3.09353 15.3667 5.86305C15.3667 8.63256 13.1135 10.8856 10.344 10.8856ZM19.6889 6.31943C18.6045 7.70985 17.2001 8.85981 15.6274 9.64498C15.1813 9.8677 14.7255 10.0597 14.2615 10.2227C15.4558 9.14847 16.2082 7.59202 16.2082 5.86301C16.2082 4.13306 15.4551 2.57593 14.2597 1.50161C14.7244 1.66489 15.1807 1.85795 15.6275 2.08104C17.2001 2.86621 18.6045 4.01617 19.689 5.40658C19.8985 5.67536 19.8985 6.05069 19.6889 6.31943Z" fill="#3D3C3C"/>
</svg>
