<svg width="92" height="96" viewBox="0 0 92 96" fill="none" xmlns="http://www.w3.org/2000/svg">
<path d="M45.6914 1.92224C51.0912 2.15508 54.3335 6.4154 54.3335 6.4154C59.8039 2.21257 65.8615 7.25582 68.0102 15.1012C69.3243 19.9036 68.4002 28.2045 67.4848 33.9237C65.9161 32.256 64.081 32.5506 62.6541 33.2448C62.6773 31.7117 62.6213 30.7723 62.6213 30.7723C62.6213 30.7723 55.2373 25.1891 51.5714 15.7553C51.5714 15.7553 49.7211 18.5677 45.6914 21.9031V1.92224Z" fill="#945B44"/>
<path d="M62.6558 33.2447C64.2319 32.4778 66.3049 32.1991 67.9683 34.5115C70.7559 38.3869 68.3277 49.8414 60.3594 47.1855C62.2279 42.0127 62.6078 36.383 62.6558 33.2447Z" fill="#FFBD86"/>
<path d="M61.3082 44.0596C61.0448 45.1045 60.7319 46.1537 60.3594 47.1855C66.9277 49.375 69.7313 41.9764 68.952 37.1383C68.3786 41.0843 65.8545 44.9902 61.3082 44.0596Z" fill="#FFA664"/>
<path d="M45.6044 58.7324C49.506 58.7448 52.5191 57.5333 54.8461 55.608V63.6636C54.8461 68.7418 50.7291 72.8588 45.6509 72.8588C40.572 72.8588 36.4551 68.7418 36.4551 63.6636V55.6065C38.7602 57.5122 41.7435 58.7193 45.6044 58.7324Z" fill="#FFBD86"/>
<path d="M28.7724 30.66C28.7724 30.66 26.9205 58.6704 45.6033 58.7323C64.2861 58.7941 62.6198 30.7721 62.6198 30.7721C62.6198 30.7721 55.2358 25.1882 51.57 15.7551C51.57 15.7551 44.752 26.1225 28.7724 30.66Z" fill="#FED2A4"/>
<path d="M45.6036 55.3525C31.2342 55.3044 29.0127 38.7252 28.7522 31.072C28.6125 34.5202 28.2545 58.6749 45.6036 58.7323C63.5762 58.792 62.7176 32.8656 62.6266 30.8951C62.3625 38.4094 60.157 55.4005 45.6036 55.3525Z" fill="#FFBD86"/>
<path d="M36.4551 55.6057V58.9833C38.7602 60.8905 41.7421 62.0991 45.6044 62.1122C49.5067 62.1253 52.5184 60.9101 54.8461 58.9833V55.6071C52.5191 57.5324 49.5052 58.7447 45.6044 58.7316C41.7435 58.7192 38.7602 57.5121 36.4551 55.6057Z" fill="#FFA664"/>
<path d="M45.6922 1.92224V21.9031C41.9841 24.973 36.4323 28.4853 28.7746 30.6602C28.7746 30.6602 28.7717 30.7003 28.7681 30.7752C28.7659 30.7745 28.7623 30.7723 28.7623 30.7723C28.7623 30.7723 28.7237 31.4221 28.7244 32.5201C28.7055 37.2432 29.3626 49.7389 36.4563 55.6065V63.6637C36.4563 63.6637 28.1452 68.0186 20.2606 72.4419C17.2525 53.9992 12.0659 1.97681 45.6922 1.92224Z" fill="#CA6D36"/>
<path d="M20.2593 72.4418C28.144 68.0185 36.4558 63.6636 36.4558 63.6636V59.4484C34.4642 60.5042 26.5912 64.691 19.6729 68.5598C19.87 69.9736 20.0694 71.2746 20.2593 72.4418Z" fill="#AD5E2E"/>
<path d="M45.6908 72.8573C45.6777 72.8573 45.6646 72.8587 45.6507 72.8587C40.5718 72.8587 36.4556 68.7417 36.4556 63.6628C36.4556 63.6628 12.3592 76.2895 7.3021 80.3781C2.24502 84.4667 1.59961 94.4724 1.59961 94.4724H45.6908V72.8573Z" fill="#FF94D4"/>
<path d="M54.8465 63.6635C54.8465 68.7279 50.7514 72.8361 45.6914 72.8572V94.4724H89.7025C89.7025 94.4724 89.0571 84.4666 84 80.378C78.9429 76.2895 54.8465 63.6635 54.8465 63.6635Z" fill="#8BCAFF"/>
<path d="M1.59961 94.4725H45.6908V91.0926H2.07039C1.69056 93.0667 1.59961 94.4725 1.59961 94.4725Z" fill="#FF73C6"/>
<path d="M45.6914 91.0926V94.4725H89.7025C89.7025 94.4725 89.6116 93.0667 89.2317 91.0926H45.6914Z" fill="#60B8FF"/>
<path d="M54.3329 36.1494C55.6296 36.1494 56.6446 34.8928 56.6446 33.2884C56.6446 31.6839 55.6289 30.4273 54.3329 30.4273C53.0363 30.4273 52.0205 31.6839 52.0205 33.2884C52.0205 34.8928 53.0363 36.1494 54.3329 36.1494Z" fill="black"/>
<path d="M39.2811 33.2884C39.2811 31.6839 38.2653 30.4273 36.9687 30.4273C35.672 30.4273 34.6562 31.6839 34.6562 33.2884C34.6562 34.8928 35.672 36.1494 36.9687 36.1494C38.2653 36.1494 39.2811 34.8928 39.2811 33.2884Z" fill="black"/>
<path d="M38.4076 44.4044C37.7571 44.8308 37.5759 45.704 38.0023 46.3545C38.1151 46.5269 40.8241 50.5711 45.6512 50.5711C50.4783 50.5711 53.1866 46.5269 53.2994 46.3545C53.7243 45.7062 53.5439 44.8395 52.8977 44.411C52.2516 43.9824 51.3791 44.1607 50.9477 44.8046C50.928 44.8337 48.9343 47.7545 45.6512 47.7545C42.3776 47.7545 40.386 44.8526 40.354 44.8046C39.9261 44.1585 39.0559 43.9795 38.4076 44.4044Z" fill="black"/>
<path d="M47.1396 42.92C47.2829 42.92 47.4292 42.9171 47.5791 42.9113C48.3562 42.8786 48.9594 42.2222 48.9274 41.4451C48.8946 40.668 48.2368 40.0641 47.4619 40.0968C46.7743 40.1252 45.562 40.0852 45.188 39.49C44.7056 38.7223 45.2608 36.8989 45.7891 35.9078C46.1558 35.2231 45.8997 34.3703 45.2157 34.0021C44.5303 33.6325 43.6767 33.8893 43.3078 34.5741C43.0939 34.9713 41.2624 38.5258 42.7992 40.9823C43.6047 42.2695 45.0636 42.92 47.1396 42.92Z" fill="black"/>
<path d="M18.8447 93.0695H3.17215C3.30676 92.0981 3.54033 90.744 3.93034 89.2735C4.89155 85.6484 6.36429 82.9532 8.18847 81.4783C12.2792 78.1704 29.5861 68.9004 35.2828 65.8799C36.3051 70.6663 40.5647 74.2667 45.6516 74.2667C50.7378 74.2667 54.9981 70.6663 56.0204 65.8799C58.1516 67.0092 61.9048 69.0117 65.9592 71.2375C66.1738 71.3554 66.4067 71.4114 66.6352 71.4114C67.1329 71.4114 67.6153 71.1473 67.8714 70.6802C68.2454 69.9984 67.9966 69.1427 67.314 68.7679C62.4272 66.0859 57.977 63.7261 56.2554 62.818V56.2453C56.5639 55.9659 56.8674 55.6763 57.1599 55.367C58.8022 53.6294 60.1621 51.4531 61.231 48.8569C61.6967 48.9391 62.1551 48.9806 62.6033 48.9806C64.8539 48.9806 66.8498 47.9546 68.2934 45.9929C70.8525 42.5163 71.2418 36.6522 69.1106 33.6886C69.0662 33.6274 69.0211 33.5678 68.976 33.5096C69.911 27.4702 70.6852 19.5397 69.3682 14.7293C67.8831 9.30401 64.6342 5.15138 60.8905 3.8933C58.741 3.17148 56.5756 3.40651 54.5622 4.56927C53.1404 3.15038 50.08 0.701886 45.7527 0.514883C45.7316 0.514155 45.7149 0.514155 45.6894 0.513428C27.7612 0.542533 17.7445 14.786 16.7215 41.7042C16.6916 42.4813 17.2985 43.1355 18.0756 43.1646C18.0938 43.1653 18.112 43.166 18.1294 43.166C18.8826 43.166 19.5069 42.5701 19.536 41.8112C19.9645 30.5481 21.9961 21.5829 25.5768 15.1658C27.6608 11.4302 30.2977 8.54435 33.4142 6.58847C36.8399 4.43903 40.9605 3.34321 45.6618 3.33011C50.2866 3.54549 53.187 7.23461 53.2132 7.26808C53.4395 7.56641 53.7764 7.76142 54.1475 7.81162C54.5178 7.86037 54.8947 7.75996 55.1916 7.53221C56.7429 6.34034 58.359 6.01436 59.9933 6.56373C62.8158 7.51184 65.4295 11.0096 66.6512 15.4736C67.5273 18.6716 67.4392 24.3363 66.4169 31.5617C65.6761 31.2997 64.8816 31.2241 64.0535 31.3405C64.0426 30.9541 64.0295 30.7256 64.0273 30.6885C64.0033 30.2781 63.7996 29.8983 63.4721 29.6495C63.4016 29.5963 56.3522 24.1689 52.8843 15.2452C52.6936 14.754 52.2447 14.412 51.7215 14.356C51.1991 14.2992 50.6876 14.5408 50.3965 14.9788C50.3303 15.0785 43.6237 24.9795 28.3891 29.3053C27.8165 29.4675 27.4083 29.9733 27.369 30.567C27.3581 30.7336 27.1063 34.7073 27.7786 39.7192C28.6947 46.5568 30.8129 51.7958 34.0727 55.2906C34.3878 55.6275 34.7137 55.9426 35.0477 56.2453V62.818C33.0002 63.8971 27.2424 66.9481 21.3391 70.229C20.5568 65.022 19.5258 56.492 19.4559 47.3616C19.4494 46.5837 18.8098 45.9645 18.0363 45.9645C17.2592 45.9703 16.6334 46.6056 16.6392 47.3834C16.7127 56.9227 17.7744 65.7155 18.7152 71.6981C13.4333 74.6785 8.46425 77.6335 6.41741 79.2881C0.943395 83.7136 0.223034 93.9529 0.195384 94.3873C0.169917 94.7751 0.30744 95.1571 0.573028 95.4409C0.839343 95.7247 1.21116 95.8862 1.60045 95.8862H18.8454C19.6233 95.8862 20.2534 95.2554 20.2534 94.4775C20.2534 93.7004 19.6226 93.0695 18.8447 93.0695ZM53.4387 63.6636C53.4387 67.9573 49.9454 71.45 45.6516 71.45C41.3578 71.45 37.8644 67.9573 37.8644 63.6636V58.2594C40.1259 59.4993 42.7127 60.1309 45.6006 60.1403H45.6669C48.5658 60.1403 51.1649 59.5109 53.4387 58.2638V63.6636ZM63.5573 39.8378C63.8578 37.7029 63.9895 35.7572 64.0404 34.2132C65.1712 33.8981 66.0501 34.259 66.8236 35.3338C68.1181 37.1332 68.0039 41.6351 66.0254 44.323C65.0278 45.6778 63.7414 46.2861 62.1908 46.1472C62.7772 44.2262 63.2356 42.1241 63.5573 39.8378ZM30.1449 31.7247C41.7427 28.1854 48.4348 21.7444 51.2202 18.4977C54.5535 25.5434 59.588 30.097 61.2383 31.4678C61.3096 34.3805 61.2405 46.9512 55.113 53.4323C52.6711 56.0146 49.4928 57.3244 45.6654 57.3244C45.6472 57.3244 45.6283 57.3244 45.6094 57.3244C41.7594 57.3113 38.5731 55.9826 36.137 53.374C30.2832 47.1047 30.0729 35.197 30.1449 31.7247Z" fill="black"/>
<path d="M91.107 94.3873C91.0793 93.9536 90.359 83.7136 84.885 79.2881C83.0797 77.8292 78.8281 75.2111 72.2474 71.5082C71.57 71.1269 70.7113 71.367 70.3293 72.0452C69.948 72.7226 70.1882 73.5812 70.8663 73.9632C78.8929 78.4797 81.957 80.5432 83.1139 81.4783C86.5265 84.2375 87.738 90.2594 88.1288 93.0695H24.4773C23.6995 93.0695 23.0693 93.7004 23.0693 94.4775C23.0693 95.2553 23.6995 95.8862 24.4773 95.8862H89.7019C90.0912 95.8862 90.463 95.7246 90.7293 95.4409C90.9957 95.1571 91.1325 94.7758 91.107 94.3873Z" fill="black"/>
</svg>
