<svg width="95" height="94" viewBox="0 0 95 94" fill="none" xmlns="http://www.w3.org/2000/svg">
<path d="M50.1116 74.3437V89.6149H44.625V74.3437C44.625 72.8073 45.8319 71.6004 47.3683 71.6004C48.9048 71.6004 50.1116 72.8073 50.1116 74.3437Z" fill="#465A61"/>
<path d="M50.1105 74.3437V89.6149H47.3672V71.6004C48.9036 71.6004 50.1105 72.8073 50.1105 74.3437Z" fill="#3B4A51"/>
<path d="M88.5173 19.4774V74.3438C88.5173 75.8802 87.3104 77.0871 85.774 77.0871H8.96109C7.42465 77.0871 6.21777 75.8802 6.21777 74.3438V19.4774H88.5173Z" fill="#E6FFFF"/>
<path d="M88.5169 19.4774V74.3438C88.5169 75.8802 87.3101 77.0871 85.7736 77.0871H47.3672V19.4774H88.5169Z" fill="#D9F2FF"/>
<path d="M91.4441 5.76083H55.5981V2.83463C55.5981 1.29819 54.3912 0.0913086 52.8547 0.0913086H41.8815C40.345 0.0913086 39.1382 1.29819 39.1382 2.83463V5.76083H3.29215C1.7557 5.76083 0.548828 6.96771 0.548828 8.50415V19.4774C0.548828 21.0139 1.7557 22.2207 3.29215 22.2207H91.4441C92.9805 22.2207 94.1874 21.0139 94.1874 19.4774V8.50415C94.1874 6.96771 92.9805 5.76083 91.4441 5.76083Z" fill="#26BFBF"/>
<path d="M94.1865 8.50415V19.4774C94.1865 21.0139 92.9796 22.2207 91.4431 22.2207H47.3672V0.0913086H52.8538C54.3903 0.0913086 55.5971 1.29819 55.5971 2.83463V5.76083H91.4431C92.9796 5.76083 94.1865 6.96771 94.1865 8.50415Z" fill="#1A9EA6"/>
<path d="M55.5976 90.9865C55.5976 92.5229 54.3907 93.7298 52.8543 93.7298H41.881C40.3446 93.7298 39.1377 92.5229 39.1377 90.9865C39.1377 89.45 40.3446 88.2432 41.881 88.2432H52.8543C54.3907 88.2432 55.5976 89.45 55.5976 90.9865Z" fill="#596C76"/>
<path d="M55.5971 90.9865C55.5971 92.5229 54.3903 93.7298 52.8538 93.7298H47.3672V88.2432H52.8538C54.3903 88.2432 55.5971 89.45 55.5971 90.9865Z" fill="#465A61"/>
<path d="M30.9082 62.3418V44.1673C30.9082 42.6523 32.1365 41.424 33.6515 41.424H39.1382C40.6532 41.424 41.8815 42.6523 41.8815 44.1673V62.3418H30.9082Z" fill="#26BFBF"/>
<path d="M41.8818 62.3281V38.6807C41.8818 37.1657 43.1101 35.9374 44.6252 35.9374H50.1118C51.6268 35.9374 52.8551 37.1657 52.8551 38.6807V62.3281H41.8818Z" fill="#FFF261"/>
<path d="M50.1105 35.9374H47.3672V62.3281H52.8538V38.6807C52.8538 37.1657 51.6255 35.9374 50.1105 35.9374Z" fill="#FFDA2D"/>
<path d="M52.8545 62.3417V33.1939C52.8545 31.6789 54.0828 30.4506 55.5978 30.4506H61.0844C62.5995 30.4506 63.8278 31.6789 63.8278 33.1939V62.3417H52.8545Z" fill="#FF641A"/>
<path d="M72.0574 63.3705C72.0574 64.907 70.8506 66.1138 69.3141 66.1138H25.4211C23.8846 66.1138 22.6777 64.907 22.6777 63.3705C22.6777 61.8341 23.8846 60.6272 25.4211 60.6272H69.3141C70.8506 60.6272 72.0574 61.8341 72.0574 63.3705Z" fill="#596C76"/>
<path d="M72.057 63.3705C72.057 64.907 70.8502 66.1138 69.3137 66.1138H47.3672V60.6272H69.3137C70.8502 60.6272 72.057 61.8341 72.057 63.3705Z" fill="#465A61"/>
</svg>
