<svg width="16" height="17" viewBox="0 0 16 17" fill="none" xmlns="http://www.w3.org/2000/svg">
<path d="M12.8771 3.28826H12.4648V2.3706C12.4648 1.06395 11.4008 0 10.0942 0H5.11691C3.81026 0 2.74631 1.06395 2.74631 2.3706V3.28826H2.3706C1.06395 3.28826 0 4.3522 0 5.65886V9.48242C0 10.7891 1.06395 11.853 2.3706 11.853H2.74298V14.8587C2.74298 15.5103 3.27496 16.0423 3.92662 16.0423H11.2778C11.9295 16.0423 12.4615 15.5103 12.4615 14.8587V11.853H12.8771C14.1837 11.853 15.2477 10.7891 15.2477 9.48242V5.65886C15.2477 4.3522 14.1837 3.28826 12.8771 3.28826ZM3.64069 2.3706C3.64069 1.55935 4.30233 0.897704 5.11359 0.897704H10.0875C10.8988 0.897704 11.5604 1.55935 11.5604 2.3706V3.28826H3.64069V2.3706ZM11.5638 14.8653C11.5638 15.0216 11.4341 15.1512 11.2778 15.1512H3.92662C3.77036 15.1512 3.64069 15.0216 3.64069 14.8653V9.90799H11.5638V14.8653ZM14.35 9.48574C14.35 10.297 13.6883 10.9586 12.8771 10.9586H12.4648V9.90799H13.0566C13.306 9.90799 13.5055 9.7085 13.5055 9.45914C13.5055 9.20978 13.306 9.01029 13.0566 9.01029H2.08467C1.83531 9.01029 1.63582 9.20978 1.63582 9.45914C1.63582 9.7085 1.83531 9.90799 2.08467 9.90799H2.74631V10.9586H2.3706C1.55935 10.9586 0.897704 10.297 0.897704 9.48574V5.66219C0.897704 4.85093 1.55935 4.18929 2.3706 4.18929H12.8771C13.6883 4.18929 14.35 4.85093 14.35 5.66219V9.48574Z" fill="#3D3C3C"/>
</svg>
