<svg width="20" height="20" viewBox="0 0 20 20" fill="none" xmlns="http://www.w3.org/2000/svg">
<path d="M4.4348 7.7826C4.4348 9.68079 5.1078 11.4064 6.24671 12.7524L0.207001 18.7921C0.0689507 18.9302 -7.62939e-05 19.1027 -7.62939e-05 19.2926C-7.62939e-05 19.4824 0.0689507 19.6549 0.207001 19.793C0.483101 20.0691 0.931765 20.0691 1.20787 19.793L7.24758 13.7533C8.59357 14.8749 10.3365 15.5652 12.2174 15.5652C16.5142 15.5652 20 12.0794 20 7.7826C20 3.50303 16.497 0 12.2174 0C7.92058 0 4.4348 3.50303 4.4348 7.7826ZM18.585 7.7826C18.585 11.3029 15.7204 14.1502 12.2174 14.1502C8.69711 14.1502 5.84982 11.3029 5.84982 7.7826C5.84982 4.26231 8.71437 1.41502 12.2174 1.41502C15.7204 1.41502 18.585 4.27957 18.585 7.7826Z" fill="black" fill-opacity="0.5"/>
</svg>
