<svg width="87" height="87" viewBox="0 0 87 87" fill="none" xmlns="http://www.w3.org/2000/svg">
<g clip-path="url(#clip0)">
<path d="M43.5 77C36.8743 77 30.3975 75.0353 24.8884 71.3542C19.3794 67.6732 15.0856 62.4412 12.5501 56.3199C10.0145 50.1986 9.3511 43.4628 10.6437 36.9645C11.9363 30.4661 15.1269 24.497 19.8119 19.8119C24.497 15.1269 30.4661 11.9363 36.9645 10.6437C43.4629 9.35109 50.1986 10.0145 56.3199 12.55C62.4412 15.0856 67.6732 19.3793 71.3542 24.8884C75.0353 30.3974 77 36.8743 77 43.5C76.9894 52.3815 73.4566 60.8962 67.1764 67.1764C60.8962 73.4566 52.3815 76.9894 43.5 77ZM43.5 11C37.0721 11 30.7886 12.9061 25.444 16.4772C20.0994 20.0484 15.9338 25.1242 13.4739 31.0628C11.0141 37.0014 10.3705 43.5361 11.6245 49.8404C12.8785 56.1448 15.9738 61.9358 20.519 66.481C25.0643 71.0262 30.8552 74.1215 37.1596 75.3755C43.464 76.6295 49.9986 75.9859 55.9372 73.5261C61.8758 71.0662 66.9516 66.9006 70.5228 61.556C74.0939 56.2114 76 49.9279 76 43.5C75.9894 34.8837 72.5619 26.6234 66.4693 20.5307C60.3767 14.4381 52.1163 11.0106 43.5 11Z" fill="white"/>
<path d="M43.5 0C34.8965 0 26.4863 2.55123 19.3327 7.33107C12.1792 12.1109 6.60367 18.9047 3.31126 26.8533C0.0188479 34.8019 -0.842597 43.5483 0.83586 51.9864C2.51432 60.4246 6.65729 68.1756 12.7409 74.2591C18.8245 80.3427 26.5754 84.4857 35.0136 86.1642C43.4518 87.8426 52.1982 86.9812 60.1467 83.6888C68.0953 80.3963 74.8891 74.8208 79.669 67.6673C84.4488 60.5138 87 52.1035 87 43.5C86.9974 31.9639 82.4135 20.901 74.2562 12.7438C66.099 4.58652 55.0361 0.00265106 43.5 0ZM43.5 66C39.0499 66 34.6998 64.6804 30.9997 62.2081C27.2996 59.7357 24.4157 56.2217 22.7127 52.1104C21.0098 47.999 20.5642 43.475 21.4324 39.1105C22.3005 34.7459 24.4434 30.7368 27.5901 27.5901C30.7368 24.4434 34.7459 22.3005 39.1105 21.4323C43.4751 20.5642 47.9991 21.0097 52.1104 22.7127C56.2217 24.4157 59.7358 27.2996 62.2081 30.9997C64.6804 34.6998 66 39.0499 66 43.5C66 49.4674 63.6295 55.1903 59.4099 59.4099C55.1904 63.6295 49.4674 66 43.5 66Z" fill="#DEDEDE"/>
<path d="M15 61.11C12.3375 56.8059 10.6857 51.9541 10.169 46.9195C9.65226 41.885 10.284 36.7988 12.0166 32.0436C13.7493 27.2884 16.5378 22.9881 20.1723 19.4661C23.8068 15.9442 28.1927 13.2923 33 11.71V12.77C26.6048 14.9875 21.0547 19.1338 17.1146 24.6375C13.1744 30.1412 11.0381 36.7314 11 43.5C10.9873 49.4726 12.6279 55.3322 15.74 60.43L15 61.11Z" fill="white"/>
<path d="M43 0C34.2787 0.0968775 25.788 2.81379 18.6306 7.7979C11.4731 12.782 5.97965 19.803 2.86351 27.9492C-0.252623 36.0954 -0.847427 44.9903 1.15635 53.4788C3.16012 61.9673 7.66989 69.6573 14.1 75.55L29.64 61.21C25.9818 58.3531 23.2971 54.4343 21.9543 49.9912C20.6115 45.5481 20.6763 40.7984 22.1398 36.3936C23.6034 31.9888 26.3939 28.1447 30.1287 25.3886C33.8634 22.6326 38.3595 21.0996 43 21V0Z" fill="#EEC129"/>
<path d="M48.0962 43.5908C48.0962 45.0654 47.791 46.1934 47.1807 46.9746C46.5703 47.7559 45.6768 48.1465 44.5 48.1465C43.3379 48.1465 42.4492 47.7632 41.834 46.9966C41.2188 46.23 40.9038 45.1313 40.8892 43.7007V41.7378C40.8892 40.2485 41.1968 39.1182 41.812 38.3467C42.4321 37.5752 43.3232 37.1895 44.4854 37.1895C45.6475 37.1895 46.5361 37.5728 47.1514 38.3394C47.7666 39.1011 48.0815 40.1973 48.0962 41.6279V43.5908ZM45.9795 41.4375C45.9795 40.5537 45.8574 39.9116 45.6133 39.5112C45.374 39.106 44.998 38.9033 44.4854 38.9033C43.9873 38.9033 43.6187 39.0962 43.3794 39.4819C43.145 39.8628 43.0205 40.4609 43.0059 41.2764V43.8691C43.0059 44.7383 43.123 45.3853 43.3574 45.8101C43.5967 46.23 43.9775 46.4399 44.5 46.4399C45.0176 46.4399 45.3911 46.2373 45.6206 45.832C45.8501 45.4268 45.9697 44.8066 45.9795 43.9717V41.4375Z" fill="#EEC129"/>
</g>
<defs>
<clipPath id="clip0">
<rect width="87" height="87" fill="white"/>
</clipPath>
</defs>
</svg>
