<svg width="26" height="30" viewBox="0 0 26 30" fill="none" xmlns="http://www.w3.org/2000/svg">
<path d="M19.6356 13.6395V8.55819C19.6356 6.77851 18.8767 5.10859 17.499 3.8572C16.9823 3.38816 16.4018 3.00085 15.7761 2.70008C15.388 2.51306 15.0584 2.24342 15.0584 2.05177V1.70504C15.0584 0.748867 14.1171 0 12.9156 0H11.552C10.3504 0 9.40911 0.748867 9.40911 1.70496C9.40911 1.70496 9.40911 1.89197 9.40911 2.12258C9.40911 2.35319 9.08495 2.67115 8.70783 2.87845C6.59535 4.03557 5.1756 6.1465 5.1756 8.55893V13.6753C5.1756 14.1054 5.00969 14.7608 4.80239 15.138C3.99045 16.6161 2.24035 19.7727 1.30684 21.4574L1.0169 21.9787C0.190135 23.4677 0.0927578 24.8976 0.744166 26.0035C1.39476 27.1091 2.6922 27.7177 4.39634 27.7177H7.38545C7.81562 27.7177 8.30031 28.0465 8.57997 28.3729C9.41693 29.3493 11.0618 30 13.0006 30C14.9376 30 16.5826 29.3494 17.4195 28.3729C17.7 28.0465 18.184 27.7177 18.6149 27.7177H21.8097C23.5239 27.7169 24.7848 27.1239 25.3614 26.0493C25.938 24.9732 25.7338 23.5956 24.7848 22.1688L20.0673 15.0685C19.8289 14.7094 19.6356 14.0704 19.6356 13.6395ZM11.5512 1.16885H12.9148C13.4727 1.16885 13.8888 1.45169 13.8888 1.70496C13.8888 1.70496 13.8888 1.78832 13.8888 1.89197C13.8888 1.99481 13.5615 2.01273 13.1516 1.97305C12.9055 1.94966 12.6577 1.9372 12.4067 1.9372C12.0444 1.9372 11.689 1.96368 11.3423 2.01355C10.9161 2.07434 10.5771 2.05796 10.5771 1.93255V1.70504C10.5771 1.45169 10.9932 1.16885 11.5512 1.16885ZM10.1946 28.1774C9.81817 27.9678 9.91636 27.7177 10.3473 27.7177H15.6537C16.0838 27.7177 16.182 27.9685 15.8064 28.1774C15.095 28.5733 14.0867 28.8304 13.0012 28.8304C11.9143 28.8304 10.906 28.5733 10.1946 28.1774ZM21.8096 26.5489H4.39634C3.1231 26.5489 2.18421 26.1437 1.75167 25.4097C1.31922 24.6757 1.42124 23.6581 2.03916 22.5445C4.45094 18.195 5.51923 16.2671 5.98208 15.3585C6.17692 14.9751 6.30159 14.298 6.30469 13.8679L6.34291 8.55827C6.34291 5.55205 9.06238 3.10531 12.4052 3.10531C14.0354 3.10531 15.565 3.67882 16.7113 4.72145C17.8427 5.74925 18.4653 7.11131 18.4653 8.55827V13.9934C18.4653 14.4235 18.6585 15.0633 18.8969 15.4217L23.8107 22.8157C24.5097 23.8669 24.6936 24.8191 24.3305 25.4969C23.9681 26.1749 23.072 26.5489 21.8096 26.5489Z" fill="#7E7E7E"/>
</svg>
