<svg width="25" height="33" viewBox="0 0 25 33" fill="none" xmlns="http://www.w3.org/2000/svg">
<path d="M24.8711 8.35983C24.8654 8.16666 24.7884 7.9782 24.6462 7.83595L17.0365 0.226295C17.0362 0.225973 17.0359 0.225844 17.0356 0.225521C16.8958 0.0861738 16.703 0 16.4902 0H1.75435C0.857359 0 0.127686 0.729609 0.127686 1.6266V31.3733C0.127686 32.2703 0.857295 32.9999 1.75429 32.9999H23.2458C24.1427 32.9999 24.8724 32.2703 24.8724 31.3733V8.38226C24.8725 8.37465 24.8716 8.3673 24.8711 8.35983ZM17.2629 2.63813L22.2345 7.60972H17.5889C17.4091 7.60972 17.2629 7.46348 17.2629 7.28365V2.63813ZM23.3272 31.3735C23.3271 31.4182 23.2907 31.4547 23.2459 31.4547H1.75435C1.70956 31.4547 1.67308 31.4182 1.67308 31.3734V1.6266C1.67308 1.58181 1.70956 1.54533 1.75435 1.54533H15.7175V7.28365C15.7175 8.31549 16.557 9.15505 17.5889 9.15505H23.3273V31.3735H23.3272Z" fill="#FCF1FE"/>
</svg>
