<svg width="117" height="8" viewBox="0 0 117 8" fill="none" xmlns="http://www.w3.org/2000/svg">
<path d="M6.5 4H111.364" stroke="#C0CAD5" stroke-width="8"/>
<path d="M111.614 7.516V0.483997L116.568 4L111.614 7.516Z" stroke="#C0CAD5" stroke-width="0.5"/>
<path d="M111.694 1.44965C111.718 1.66582 111.717 1.77554 111.752 1.56697C111.763 1.50184 111.663 1.27584 111.639 1.37666C111.634 1.39869 111.989 2.08397 112.026 2.15355C112.099 2.29066 112.008 1.97378 112.004 1.92674C111.999 1.87054 112.142 2.03983 112.168 2.07012C112.24 2.15358 112.043 2.05653 112.01 2.06752C111.832 2.12817 111.718 2.43537 111.718 2.78184C111.718 3.01412 111.869 2.54603 111.879 2.46639C111.879 2.46139 111.889 2.32888 111.881 2.38036C111.847 2.60147 111.836 2.80864 111.836 3.03993C111.836 3.32631 111.877 3.8187 112.063 3.41013C112.147 3.22491 112.191 2.95869 112.263 2.75316C112.305 2.63492 112.332 2.60454 112.406 2.62542C112.51 2.65487 112.5 2.64908 112.5 2.39861C112.5 2.05301 112.492 2.43892 112.548 2.54199C112.585 2.61061 112.675 2.57588 112.723 2.57588C112.743 2.57588 112.736 2.65025 112.748 2.68016C112.801 2.80891 112.875 2.90343 112.946 2.98779C113.036 3.0944 113.133 3.13955 113.2 3.30063C113.245 3.40897 113.307 3.33246 113.354 3.42056C113.397 3.50055 113.454 3.56809 113.51 3.60826C113.619 3.68713 113.736 3.75078 113.84 3.84289C114.011 3.99265 113.889 3.98367 113.757 3.98367C113.548 3.98367 113.382 4.20694 113.194 4.34865C113.068 4.44305 113.128 4.45293 113.224 4.45293C113.304 4.45293 113.393 4.42591 113.473 4.4034C113.489 4.39879 113.609 4.32041 113.562 4.34865C113.446 4.41944 113.339 4.57528 113.225 4.63543C112.985 4.76239 112.857 5.12196 112.643 5.33411C112.486 5.48893 112.308 5.51169 112.179 5.76687C112.131 5.86152 112.083 5.95288 112.016 6.0015C111.94 6.05618 111.919 6.18955 111.86 6.27263C111.845 6.29372 111.965 6.2591 111.972 6.25699C112.109 6.2148 112.249 6.16605 112.379 6.06928C112.502 5.978 112.589 5.78923 112.703 5.67302C112.767 5.60795 112.862 5.48585 112.914 5.39146C112.975 5.28246 113.074 5.31747 113.139 5.20376C113.27 4.97693 113.304 4.90157 113.282 4.52854C113.273 4.38304 113.222 4.16023 113.188 4.0306C113.129 3.80144 112.877 3.95906 112.804 4.07752C112.74 4.17967 112.637 4.40142 112.669 4.59111C112.689 4.70852 112.787 4.52246 112.804 4.48943C112.884 4.32935 112.931 4.12336 112.946 3.90025C112.955 3.76519 112.997 3.35675 112.875 3.43098C112.625 3.58307 112.372 4.23484 112.315 4.72406C112.307 4.78849 112.319 4.90779 112.353 4.79706C112.423 4.56925 112.488 4.25478 112.514 3.9941C112.519 3.93943 112.554 3.16571 112.44 3.36059C112.241 3.70221 112.093 4.39509 112.055 4.89091C112.012 5.45287 112.252 4.91713 112.309 4.70582C112.344 4.57822 112.556 3.56139 112.342 3.61869C112.101 3.68347 112.015 4.19872 111.945 4.58589C111.931 4.65944 111.84 5.41807 111.931 5.04212C111.991 4.79529 112.176 3.68657 111.955 3.57176C111.71 3.44401 111.572 4.53371 111.543 4.84659C111.532 4.95772 111.47 5.69196 111.612 5.45403C111.705 5.29929 111.76 5.02331 111.797 4.80488C111.799 4.78973 111.875 4.17374 111.847 4.18963C111.788 4.22313 111.752 4.87931 111.743 4.97173C111.711 5.29965 111.672 5.63463 111.649 5.965C111.637 6.14887 111.608 6.32805 111.581 6.50726C111.552 6.69986 111.707 6.65847 111.763 6.65847C111.842 6.65847 111.847 6.57943 111.913 6.52812C111.918 6.52415 111.656 6.56462 111.576 6.56462" stroke="#C0CAD5" stroke-linecap="round" stroke-linejoin="round"/>
<path d="M111.86 1.73119C111.883 1.73119 112.177 1.63266 112.14 1.82505C112.129 1.88046 112.067 1.90473 112.045 1.93976C111.979 2.04573 111.955 2.15362 111.955 2.31777C111.955 2.59028 112.041 2.11163 111.985 2.00232C111.911 1.85608 111.843 2.26843 111.839 2.34384C111.825 2.64192 111.843 2.938 111.86 3.23284" stroke="#C0CAD5" stroke-linecap="round" stroke-linejoin="round"/>
<path d="M113.083 4.69853C113.271 4.61787 114.446 4.34649 114.462 4.03203C114.473 3.82451 114.246 3.76998 114.118 3.60251C113.823 3.21958 113.481 2.77975 113.087 2.46576C112.491 1.99096 112.095 1.27321 111.266 1.36603C110.797 1.41852 110.827 2.48401 110.827 2.80271C110.827 2.98371 110.766 3.05704 110.715 3.21742C110.66 3.39572 110.702 3.63891 110.702 3.82468C110.702 4.2814 110.578 4.99043 110.736 5.42428C110.959 6.03257 111.631 5.87438 111.979 6.32776C112.305 6.75114 112.48 6.40959 112.857 6.23149C112.989 6.16918 113.141 5.89395 113.303 5.79826C113.458 5.70628 113.583 5.56654 113.71 5.43169C113.949 5.17732 114.171 5.02473 114.448 4.83184C114.669 4.67873 115.118 4.29863 115.371 4.29863C115.488 4.29863 115.735 4.01136 115.577 3.95057C115.401 3.88353 115.125 3.7787 115.026 3.59511C114.933 3.4218 114.696 3.37699 114.556 3.26186C114.362 3.10151 114.21 2.93525 113.989 2.81752C113.864 2.75096 113.737 2.64126 113.613 2.56573C113.264 2.35415 113.642 2.50176 113.787 2.59536C114.251 2.89506 114.606 3.31014 115.089 3.58029C115.471 3.79383 115.496 4.16533 115.967 4.16533" stroke="#C0CAD5" stroke-linecap="round" stroke-linejoin="round"/>
<path d="M113.201 1.99432C113.216 1.99692 113.231 1.99952 113.246 2.00212" stroke="#C0CAD5" stroke-linecap="round" stroke-linejoin="round"/>
<path d="M107.775 4.59386C107.775 4.96065 107.987 4.93356 108.303 5.01419C108.952 5.17985 109.622 5.30167 110.276 5.44599C110.513 5.49827 110.737 5.54405 110.977 5.55681C111.093 5.56297 111.256 5.7373 111.139 5.48803" stroke="#C0CAD5" stroke-linecap="round" stroke-linejoin="round"/>
<path d="M2 0.5H9V7.5H2L7.5 4L2 0.5Z" stroke="#C0CAD5"/>
<path d="M8.17962 2.69955C8.18571 2.36748 8.2457 2.04743 8.2457 1.71571C8.2457 1.47318 8.09919 1.5282 7.8786 1.47526C7.0492 1.27621 6.20992 1.3119 5.36393 1.3119C5.09034 1.3119 4.84161 1.38812 4.57833 1.41102C4.48663 1.41899 4.26421 1.35754 4.20021 1.29354C4.08151 1.17484 4.7437 1.32917 4.80593 1.34127C5.2175 1.42129 5.69182 1.36919 6.10548 1.30456C6.26705 1.27931 6.41505 1.20648 6.57905 1.18708C6.75836 1.16587 6.93621 1.1473 7.11502 1.121C7.34632 1.08699 7.56829 1.01454 7.8015 1.01454C7.91412 1.01454 8.0665 0.990395 8.17778 1.01822C8.33169 1.05669 8.2943 1.26939 8.31912 1.37798C8.3483 1.50562 8.3887 1.65982 8.2457 1.73407C8.08105 1.81956 7.87735 1.80661 7.69871 1.80749C7.05413 1.81068 6.40923 1.80679 5.76591 1.85521C5.58546 1.8688 5.41634 1.89396 5.24095 1.93781C5.13232 1.96497 4.97948 1.945 4.88302 2.00573C4.73058 2.10171 4.84091 2.3204 4.96012 2.39669C5.27291 2.59688 5.85382 2.50132 6.19909 2.50132C6.40758 2.50132 6.61654 2.49759 6.82501 2.50132C7.04809 2.5053 7.25374 2.59333 7.46744 2.64082C7.63896 2.67893 7.76961 2.72575 7.91898 2.81703C8.18288 2.9783 8.14658 3.14828 8.14658 3.43376C8.14658 3.66428 7.89762 3.59162 7.71523 3.59162C7.42022 3.59162 7.22973 3.50553 7.08932 3.23553C7.05831 3.17589 7.6238 3.3492 7.71707 3.39338C7.89286 3.47665 8.06688 3.58588 8.14658 3.77517C8.20112 3.9047 8.27874 4.0276 8.27874 4.16981C8.27874 4.33484 8.26949 4.49868 8.31178 4.65989C8.42895 5.10661 8.44394 5.52267 8.44394 5.9833C8.44394 6.22392 8.47616 6.49191 8.4421 6.73036C8.38312 7.14319 7.94648 7.00571 7.69137 6.89555C7.48927 6.80828 7.60477 6.50301 7.65099 6.34123C7.717 6.11019 7.77384 5.90326 7.81802 5.66759C7.85203 5.48621 7.91271 5.29539 7.8786 5.10776C7.85527 4.97949 7.78029 4.71737 7.67669 4.62318C7.57847 4.53389 7.19299 4.85971 7.12236 4.91319C6.79293 5.16262 6.96796 5.52892 6.98837 5.88602C6.99769 6.04918 7.10212 6.15541 7.12052 6.30268C7.141 6.46646 7.13079 6.6332 7.05628 6.77808C6.88207 7.11682 6.4414 7.04615 6.36613 6.66979C6.29266 6.30245 6.69285 6.03884 6.69285 5.6731C6.69285 5.42978 6.54893 5.45448 6.42853 5.6217C6.37603 5.69462 6.28132 5.7471 6.26701 5.84013C6.24231 6.00068 6.20168 6.15421 6.15688 6.31186C6.12547 6.42235 6.06764 6.52178 6.0651 6.63858C6.06308 6.7316 6.06617 6.8146 6.03206 6.9029C5.97674 7.04607 5.91859 7.02771 5.78243 7.02771C5.58837 7.02771 5.50343 6.78236 5.50343 6.61656C5.50343 6.45252 5.59137 6.37865 5.73471 6.30085C5.84465 6.24116 5.8385 6.17905 5.83382 6.06223C5.82663 5.88248 5.54781 6.13258 5.52179 6.20356C5.4224 6.47461 5.36776 7.15987 4.97113 7.15987C4.78466 7.15987 4.61648 7.06656 4.54896 6.88087C4.5009 6.74871 4.55762 6.66428 4.68479 6.66428C4.86208 6.66428 5.0478 6.69348 5.20608 6.60554C5.30726 6.54933 5.22055 6.40633 5.13633 6.38528C4.87553 6.32008 4.78659 6.48482 4.70865 6.69915C4.67067 6.80359 4.56814 7.21734 4.41313 7.22595C4.28611 7.23301 4.14618 7.2381 4.02033 7.22411C3.73274 7.19216 4.36401 7.13261 4.41313 7.12683" stroke="#C0CAD5" stroke-linecap="round" stroke-linejoin="round"/>
</svg>
