<svg width="115" height="8" viewBox="0 0 115 8" fill="none" xmlns="http://www.w3.org/2000/svg">
<path d="M0 4H109.135" stroke="#99CED4" stroke-width="8"/>
<path d="M109.385 7.52691V0.473089L114.556 4L109.385 7.52691Z" stroke="#99CED4" stroke-width="0.5"/>
<path d="M109.478 1.44965C109.503 1.66582 109.502 1.77554 109.538 1.56697C109.55 1.50184 109.445 1.27584 109.421 1.37666C109.415 1.39869 109.785 2.08397 109.824 2.15355C109.9 2.29066 109.804 1.97378 109.8 1.92674C109.795 1.87054 109.945 2.03983 109.972 2.07012C110.046 2.15358 109.841 2.05653 109.807 2.06752C109.621 2.12817 109.503 2.43537 109.503 2.78184C109.503 3.01412 109.661 2.54603 109.67 2.46639C109.671 2.46139 109.681 2.32888 109.673 2.38036C109.637 2.60147 109.626 2.80864 109.626 3.03993C109.626 3.32631 109.669 3.8187 109.862 3.41013C109.95 3.22491 109.996 2.95869 110.07 2.75316C110.114 2.63492 110.142 2.60454 110.219 2.62542C110.327 2.65487 110.317 2.64908 110.317 2.39861C110.317 2.05301 110.308 2.43892 110.367 2.54199C110.405 2.61061 110.498 2.57588 110.549 2.57588C110.569 2.57588 110.562 2.65025 110.575 2.68016C110.63 2.80891 110.707 2.90343 110.781 2.98779C110.874 3.0944 110.976 3.13955 111.045 3.30063C111.092 3.40897 111.157 3.33246 111.206 3.42056C111.25 3.50055 111.309 3.56809 111.368 3.60826C111.482 3.68713 111.603 3.75078 111.712 3.84289C111.889 3.99265 111.762 3.98367 111.625 3.98367C111.408 3.98367 111.235 4.20694 111.038 4.34865C110.908 4.44305 110.97 4.45293 111.07 4.45293C111.153 4.45293 111.246 4.42591 111.329 4.4034C111.346 4.39879 111.471 4.32041 111.422 4.34865C111.301 4.41944 111.19 4.57528 111.071 4.63543C110.821 4.76239 110.689 5.12196 110.465 5.33411C110.302 5.48893 110.117 5.51169 109.983 5.76687C109.933 5.86152 109.883 5.95288 109.813 6.0015C109.734 6.05618 109.712 6.18955 109.651 6.27263C109.635 6.29372 109.76 6.2591 109.767 6.25699C109.91 6.2148 110.055 6.16605 110.191 6.06928C110.319 5.978 110.41 5.78923 110.528 5.67302C110.595 5.60795 110.693 5.48585 110.748 5.39146C110.811 5.28246 110.914 5.31747 110.982 5.20376C111.119 4.97693 111.153 4.90157 111.13 4.52854C111.121 4.38304 111.068 4.16023 111.033 4.0306C110.971 3.80144 110.71 3.95906 110.633 4.07752C110.566 4.17967 110.46 4.40142 110.493 4.59111C110.513 4.70852 110.615 4.52246 110.633 4.48943C110.717 4.32935 110.766 4.12336 110.781 3.90025C110.79 3.76519 110.834 3.35675 110.707 3.43098C110.447 3.58307 110.183 4.23484 110.124 4.72406C110.116 4.78849 110.128 4.90779 110.164 4.79706C110.237 4.56925 110.304 4.25478 110.331 3.9941C110.337 3.93943 110.372 3.16571 110.254 3.36059C110.047 3.70221 109.893 4.39509 109.854 4.89091C109.809 5.45287 110.058 4.91713 110.118 4.70582C110.155 4.57822 110.375 3.56139 110.153 3.61869C109.901 3.68347 109.812 4.19872 109.739 4.58589C109.725 4.65944 109.63 5.41807 109.725 5.04212C109.787 4.79529 109.979 3.68657 109.75 3.57176C109.494 3.44401 109.351 4.53371 109.32 4.84659C109.31 4.95772 109.245 5.69196 109.393 5.45403C109.489 5.29929 109.547 5.02331 109.585 4.80488C109.588 4.78973 109.666 4.17374 109.637 4.18963C109.575 4.22313 109.538 4.87931 109.529 4.97173C109.496 5.29965 109.455 5.63463 109.431 5.965C109.418 6.14887 109.388 6.32805 109.36 6.50726C109.33 6.69986 109.492 6.65847 109.549 6.65847C109.632 6.65847 109.637 6.57943 109.706 6.52812C109.711 6.52415 109.439 6.56462 109.355 6.56462" stroke="#99CED4" stroke-linecap="round" stroke-linejoin="round"/>
<path d="M109.651 1.73119C109.675 1.73119 109.981 1.63266 109.942 1.82505C109.93 1.88046 109.866 1.90473 109.843 1.93976C109.774 2.04573 109.75 2.15362 109.75 2.31777C109.75 2.59028 109.839 2.11163 109.781 2.00232C109.704 1.85608 109.633 2.26843 109.629 2.34384C109.615 2.64192 109.633 2.938 109.651 3.23284" stroke="#99CED4" stroke-linecap="round" stroke-linejoin="round"/>
<path d="M110.924 4.69853C111.12 4.61787 112.342 4.34649 112.359 4.03203C112.37 3.82451 112.134 3.76998 112 3.60251C111.694 3.21958 111.337 2.77975 110.927 2.46576C110.308 1.99096 109.895 1.27321 109.032 1.36603C108.544 1.41852 108.576 2.48401 108.576 2.80271C108.576 2.98371 108.512 3.05704 108.46 3.21742C108.401 3.39572 108.445 3.63891 108.445 3.82468C108.445 4.2814 108.316 4.99043 108.481 5.42428C108.713 6.03257 109.412 5.87438 109.775 6.32776C110.114 6.75114 110.296 6.40959 110.688 6.23149C110.826 6.16918 110.984 5.89395 111.152 5.79826C111.314 5.70628 111.444 5.56654 111.576 5.43169C111.825 5.17732 112.056 5.02473 112.344 4.83184C112.574 4.67873 113.041 4.29863 113.305 4.29863C113.426 4.29863 113.684 4.01136 113.519 3.95057C113.336 3.88353 113.049 3.7787 112.946 3.59511C112.849 3.4218 112.602 3.37699 112.457 3.26186C112.255 3.10151 112.097 2.93525 111.866 2.81752C111.736 2.75096 111.604 2.64126 111.475 2.56573C111.112 2.35415 111.505 2.50176 111.656 2.59536C112.139 2.89506 112.509 3.31014 113.011 3.58029C113.408 3.79383 113.435 4.16533 113.925 4.16533" stroke="#99CED4" stroke-linecap="round" stroke-linejoin="round"/>
<path d="M111.047 1.99432C111.062 1.99692 111.078 1.99952 111.093 2.00212" stroke="#99CED4" stroke-linecap="round" stroke-linejoin="round"/>
<path d="M105.399 4.59386C105.399 4.96065 105.62 4.93356 105.949 5.01419C106.625 5.17985 107.321 5.30167 108.002 5.44599C108.249 5.49827 108.482 5.54405 108.732 5.55681C108.852 5.56297 109.022 5.7373 108.9 5.48803" stroke="#99CED4" stroke-linecap="round" stroke-linejoin="round"/>
</svg>
