<svg width="26" height="26" viewBox="0 0 26 26" fill="none" xmlns="http://www.w3.org/2000/svg">
<mask id="path-1-inside-1" fill="white">
<path d="M2.09677 2.51613H14.6774V5.45161C14.6774 5.68361 14.8648 5.87097 15.0968 5.87097H18.0323V9.22581H18.871V5.45161C18.871 5.33551 18.8237 5.23067 18.7477 5.15471L15.3941 1.8011C15.3177 1.72472 15.2129 1.67742 15.0968 1.67742H3.77419V0.83871H19.7097V10.0645H20.5484V0.419355C20.5484 0.187358 20.361 0 20.129 0H3.35483C3.12283 0 2.93548 0.187358 2.93548 0.419355V1.67742H1.67741C1.44541 1.67742 1.25806 1.86478 1.25806 2.09677V25.5806C1.25806 25.8126 1.44541 26 1.67741 26H15.9355V25.1613H2.09677V2.51613ZM15.5161 3.10912L17.4393 5.03226H15.5161V3.10912Z"/>
</mask>
<path d="M2.09677 2.51613H14.6774V5.45161C14.6774 5.68361 14.8648 5.87097 15.0968 5.87097H18.0323V9.22581H18.871V5.45161C18.871 5.33551 18.8237 5.23067 18.7477 5.15471L15.3941 1.8011C15.3177 1.72472 15.2129 1.67742 15.0968 1.67742H3.77419V0.83871H19.7097V10.0645H20.5484V0.419355C20.5484 0.187358 20.361 0 20.129 0H3.35483C3.12283 0 2.93548 0.187358 2.93548 0.419355V1.67742H1.67741C1.44541 1.67742 1.25806 1.86478 1.25806 2.09677V25.5806C1.25806 25.8126 1.44541 26 1.67741 26H15.9355V25.1613H2.09677V2.51613ZM15.5161 3.10912L17.4393 5.03226H15.5161V3.10912Z" fill="#C3C5C4"/>
<path d="M2.09677 2.51613V1.51613H1.09677V2.51613H2.09677ZM14.6774 2.51613H15.6774V1.51613H14.6774V2.51613ZM18.0323 5.87097H19.0323V4.87097H18.0323V5.87097ZM18.0323 9.22581H17.0323V10.2258H18.0323V9.22581ZM18.871 9.22581V10.2258H19.871V9.22581H18.871ZM18.7477 5.15471L18.0406 5.86181L18.7477 5.15471ZM15.3941 1.8011L14.687 2.5082L15.3941 1.8011ZM3.77419 1.67742H2.77419V2.67742H3.77419V1.67742ZM3.77419 0.83871V-0.16129H2.77419V0.83871H3.77419ZM19.7097 0.83871H20.7097V-0.16129H19.7097V0.83871ZM19.7097 10.0645H18.7097V11.0645H19.7097V10.0645ZM20.5484 10.0645V11.0645H21.5484V10.0645H20.5484ZM2.93548 1.67742V2.67742H3.93548V1.67742H2.93548ZM15.9355 26V27H16.9355V26H15.9355ZM15.9355 25.1613H16.9355V24.1613H15.9355V25.1613ZM2.09677 25.1613H1.09677V26.1613H2.09677V25.1613ZM15.5161 3.10912L16.2232 2.40202L14.5161 0.69491V3.10912H15.5161ZM17.4393 5.03226V6.03226H19.8535L18.1464 4.32515L17.4393 5.03226ZM15.5161 5.03226H14.5161V6.03226H15.5161V5.03226ZM2.09677 3.51613H14.6774V1.51613H2.09677V3.51613ZM13.6774 2.51613V5.45161H15.6774V2.51613H13.6774ZM13.6774 5.45161C13.6774 6.23589 14.3125 6.87097 15.0968 6.87097V4.87097C15.4171 4.87097 15.6774 5.13132 15.6774 5.45161H13.6774ZM15.0968 6.87097H18.0323V4.87097H15.0968V6.87097ZM17.0323 5.87097V9.22581H19.0323V5.87097H17.0323ZM18.0323 10.2258H18.871V8.22581H18.0323V10.2258ZM19.871 9.22581V5.45161H17.871V9.22581H19.871ZM19.871 5.45161C19.871 5.05772 19.7092 4.70202 19.4548 4.4476L18.0406 5.86181C17.9381 5.75932 17.871 5.6133 17.871 5.45161H19.871ZM19.4548 4.4476L16.1012 1.09399L14.687 2.5082L18.0406 5.86181L19.4548 4.4476ZM16.1012 1.09399C15.8469 0.839674 15.4914 0.677419 15.0968 0.677419V2.67742C14.9344 2.67742 14.7885 2.60976 14.687 2.5082L16.1012 1.09399ZM15.0968 0.677419H3.77419V2.67742H15.0968V0.677419ZM4.77419 1.67742V0.83871H2.77419V1.67742H4.77419ZM3.77419 1.83871H19.7097V-0.16129H3.77419V1.83871ZM18.7097 0.83871V10.0645H20.7097V0.83871H18.7097ZM19.7097 11.0645H20.5484V9.06452H19.7097V11.0645ZM21.5484 10.0645V0.419355H19.5484V10.0645H21.5484ZM21.5484 0.419355C21.5484 -0.364927 20.9133 -1 20.129 -1V1C19.8087 1 19.5484 0.739643 19.5484 0.419355H21.5484ZM20.129 -1H3.35483V1H20.129V-1ZM3.35483 -1C2.57055 -1 1.93548 -0.364927 1.93548 0.419355H3.93548C3.93548 0.739643 3.67512 1 3.35483 1V-1ZM1.93548 0.419355V1.67742H3.93548V0.419355H1.93548ZM2.93548 0.677419H1.67741V2.67742H2.93548V0.677419ZM1.67741 0.677419C0.89313 0.677419 0.258057 1.31249 0.258057 2.09677H2.25806C2.25806 2.41706 1.9977 2.67742 1.67741 2.67742V0.677419ZM0.258057 2.09677V25.5806H2.25806V2.09677H0.258057ZM0.258057 25.5806C0.258057 26.3649 0.89313 27 1.67741 27V25C1.9977 25 2.25806 25.2604 2.25806 25.5806H0.258057ZM1.67741 27H15.9355V25H1.67741V27ZM16.9355 26V25.1613H14.9355V26H16.9355ZM15.9355 24.1613H2.09677V26.1613H15.9355V24.1613ZM3.09677 25.1613V2.51613H1.09677V25.1613H3.09677ZM14.809 3.81623L16.7322 5.73936L18.1464 4.32515L16.2232 2.40202L14.809 3.81623ZM17.4393 4.03226H15.5161V6.03226H17.4393V4.03226ZM16.5161 5.03226V3.10912H14.5161V5.03226H16.5161Z" fill="#C3C5C4" mask="url(#path-1-inside-1)"/>
<mask id="path-3-inside-2" fill="white">
<path d="M24.3225 12.5806H23.6911C21.8185 12.5806 20.0573 11.7559 18.8589 10.3178L18.7741 10.2158C18.6152 10.0242 18.2884 10.0242 18.1295 10.2158L18.0447 10.3174C16.8458 11.7559 15.0847 12.5806 13.2121 12.5806H12.5806C12.3486 12.5806 12.1613 12.768 12.1613 13V19.7918C12.1613 21.4432 13.052 22.9781 14.4857 23.7972L18.2435 25.9447C18.3078 25.9816 18.3799 26 18.4516 26C18.5232 26 18.5953 25.9816 18.6596 25.9447L22.4174 23.7972C23.8512 22.9781 24.7419 21.4432 24.7419 19.7918V13C24.7419 12.768 24.5545 12.5806 24.3225 12.5806ZM23.9032 19.7918C23.9032 21.143 23.1748 22.3986 22.0013 23.0686L18.4516 25.098L14.9018 23.0692C13.7283 22.3986 13 21.143 13 19.7918V13.4194H13.2121C15.2132 13.4194 17.103 12.5878 18.4516 11.125C19.7997 12.5878 21.6899 13.4194 23.6911 13.4194H23.9032V19.7918Z"/>
</mask>
<path d="M24.3225 12.5806H23.6911C21.8185 12.5806 20.0573 11.7559 18.8589 10.3178L18.7741 10.2158C18.6152 10.0242 18.2884 10.0242 18.1295 10.2158L18.0447 10.3174C16.8458 11.7559 15.0847 12.5806 13.2121 12.5806H12.5806C12.3486 12.5806 12.1613 12.768 12.1613 13V19.7918C12.1613 21.4432 13.052 22.9781 14.4857 23.7972L18.2435 25.9447C18.3078 25.9816 18.3799 26 18.4516 26C18.5232 26 18.5953 25.9816 18.6596 25.9447L22.4174 23.7972C23.8512 22.9781 24.7419 21.4432 24.7419 19.7918V13C24.7419 12.768 24.5545 12.5806 24.3225 12.5806ZM23.9032 19.7918C23.9032 21.143 23.1748 22.3986 22.0013 23.0686L18.4516 25.098L14.9018 23.0692C13.7283 22.3986 13 21.143 13 19.7918V13.4194H13.2121C15.2132 13.4194 17.103 12.5878 18.4516 11.125C19.7997 12.5878 21.6899 13.4194 23.6911 13.4194H23.9032V19.7918Z" fill="#C3C5C4"/>
<path d="M18.8589 10.3178L18.0899 10.9571L18.0907 10.958L18.8589 10.3178ZM18.7741 10.2158L18.0042 10.8541L18.0051 10.8551L18.7741 10.2158ZM18.1295 10.2158L18.8972 10.8566L18.8993 10.8541L18.1295 10.2158ZM18.0447 10.3174L17.277 9.6766L17.2765 9.67716L18.0447 10.3174ZM14.4857 23.7972L14.9819 22.9289L14.9818 22.9289L14.4857 23.7972ZM18.2435 25.9447L18.7409 25.0772L18.7397 25.0765L18.2435 25.9447ZM18.6596 25.9447L18.1634 25.0765L18.1623 25.0772L18.6596 25.9447ZM22.4174 23.7972L21.9214 22.9289L21.9212 22.9289L22.4174 23.7972ZM22.0013 23.0686L21.5055 22.2002L21.505 22.2005L22.0013 23.0686ZM18.4516 25.098L17.9554 25.9662L18.4517 26.2499L18.9479 25.9662L18.4516 25.098ZM14.9018 23.0692L15.398 22.201L15.398 22.201L14.9018 23.0692ZM13 13.4194V12.4194H12V13.4194H13ZM18.4516 11.125L19.1869 10.4473L18.4517 9.64952L17.7163 10.4472L18.4516 11.125ZM23.9032 13.4194H24.9032V12.4194H23.9032V13.4194ZM24.3225 11.5806H23.6911V13.5806H24.3225V11.5806ZM23.6911 11.5806C22.1152 11.5806 20.6355 10.8876 19.627 9.67759L18.0907 10.958C19.4792 12.6241 21.5218 13.5806 23.6911 13.5806V11.5806ZM19.6278 9.67853L19.5431 9.57656L18.0051 10.8551L18.0899 10.9571L19.6278 9.67853ZM19.5439 9.57759C18.9851 8.90359 17.9184 8.90359 17.3596 9.57759L18.8993 10.8541C18.7601 11.022 18.58 11.0721 18.4518 11.0721C18.3236 11.0721 18.1435 11.022 18.0042 10.8541L19.5439 9.57759ZM17.3618 9.57504L17.277 9.6766L18.8124 10.9582L18.8972 10.8566L17.3618 9.57504ZM17.2765 9.67716C16.2676 10.8877 14.7879 11.5806 13.2121 11.5806V13.5806C15.3814 13.5806 17.424 12.6241 18.8129 10.9576L17.2765 9.67716ZM13.2121 11.5806H12.5806V13.5806H13.2121V11.5806ZM12.5806 11.5806C11.7963 11.5806 11.1613 12.2157 11.1613 13H13.1613C13.1613 13.3203 12.9009 13.5806 12.5806 13.5806V11.5806ZM11.1613 13V19.7918H13.1613V13H11.1613ZM11.1613 19.7918C11.1613 21.802 12.2442 23.6683 13.9897 24.6655L14.9818 22.9289C13.8597 22.2879 13.1613 21.0844 13.1613 19.7918H11.1613ZM13.9895 24.6654L17.7474 26.8129L18.7397 25.0765L14.9819 22.9289L13.9895 24.6654ZM17.7462 26.8123C17.9654 26.9379 18.2095 27 18.4516 27V25C18.5503 25 18.6503 25.0252 18.7409 25.0772L17.7462 26.8123ZM18.4516 27C18.6937 27 18.9378 26.9379 19.1569 26.8123L18.1623 25.0772C18.2529 25.0252 18.3528 25 18.4516 25V27ZM19.1558 26.8129L22.9136 24.6654L21.9212 22.9289L18.1634 25.0765L19.1558 26.8129ZM22.9135 24.6655C24.6589 23.6683 25.7419 21.802 25.7419 19.7918H23.7419C23.7419 21.0844 23.0434 22.2879 21.9214 22.9289L22.9135 24.6655ZM25.7419 19.7918V13H23.7419V19.7918H25.7419ZM25.7419 13C25.7419 12.2157 25.1068 11.5806 24.3225 11.5806V13.5806C24.0023 13.5806 23.7419 13.3203 23.7419 13H25.7419ZM22.9032 19.7918C22.9032 20.7843 22.367 21.7083 21.5055 22.2002L22.4972 23.937C23.9827 23.0889 24.9032 21.5017 24.9032 19.7918H22.9032ZM21.505 22.2005L17.9553 24.2299L18.9479 25.9662L22.4977 23.9368L21.505 22.2005ZM18.9478 24.2298L15.398 22.201L14.4056 23.9374L17.9554 25.9662L18.9478 24.2298ZM15.398 22.201C14.5361 21.7085 14 20.7843 14 19.7918H12C12 21.5018 12.9205 23.0888 14.4056 23.9375L15.398 22.201ZM14 19.7918V13.4194H12V19.7918H14ZM13 14.4194H13.2121V12.4194H13V14.4194ZM13.2121 14.4194C15.4929 14.4194 17.6491 13.4708 19.1868 11.8028L17.7163 10.4472C16.5569 11.7049 14.9336 12.4194 13.2121 12.4194V14.4194ZM17.7162 11.8027C19.2536 13.4708 21.4104 14.4194 23.6911 14.4194V12.4194C21.9694 12.4194 20.3459 11.7048 19.1869 10.4473L17.7162 11.8027ZM23.6911 14.4194H23.9032V12.4194H23.6911V14.4194ZM22.9032 13.4194V19.7918H24.9032V13.4194H22.9032Z" fill="#C3C5C4" mask="url(#path-3-inside-2)"/>
<mask id="path-5-inside-3" fill="white">
<path d="M18.4515 13.8387C15.9082 13.8387 13.8386 15.9083 13.8386 18.4516C13.8386 20.995 15.9082 23.0645 18.4515 23.0645C20.9949 23.0645 23.0644 20.995 23.0644 18.4516C23.0644 15.9083 20.9949 13.8387 18.4515 13.8387ZM18.4515 22.2258C16.3703 22.2258 14.6773 20.5328 14.6773 18.4516C14.6773 16.3704 16.3703 14.6774 18.4515 14.6774C20.5327 14.6774 22.2257 16.3704 22.2257 18.4516C22.2257 20.5328 20.5327 22.2258 18.4515 22.2258Z"/>
</mask>
<path d="M18.4515 13.8387C15.9082 13.8387 13.8386 15.9083 13.8386 18.4516C13.8386 20.995 15.9082 23.0645 18.4515 23.0645C20.9949 23.0645 23.0644 20.995 23.0644 18.4516C23.0644 15.9083 20.9949 13.8387 18.4515 13.8387ZM18.4515 22.2258C16.3703 22.2258 14.6773 20.5328 14.6773 18.4516C14.6773 16.3704 16.3703 14.6774 18.4515 14.6774C20.5327 14.6774 22.2257 16.3704 22.2257 18.4516C22.2257 20.5328 20.5327 22.2258 18.4515 22.2258Z" fill="#C3C5C4"/>
<path d="M18.4515 12.8387C15.3559 12.8387 12.8386 15.356 12.8386 18.4516H14.8386C14.8386 16.4605 16.4604 14.8387 18.4515 14.8387V12.8387ZM12.8386 18.4516C12.8386 21.5473 15.3559 24.0645 18.4515 24.0645V22.0645C16.4604 22.0645 14.8386 20.4427 14.8386 18.4516H12.8386ZM18.4515 24.0645C21.5472 24.0645 24.0644 21.5473 24.0644 18.4516H22.0644C22.0644 20.4427 20.4426 22.0645 18.4515 22.0645V24.0645ZM24.0644 18.4516C24.0644 15.356 21.5472 12.8387 18.4515 12.8387V14.8387C20.4426 14.8387 22.0644 16.4605 22.0644 18.4516H24.0644ZM18.4515 21.2258C16.9226 21.2258 15.6773 19.9805 15.6773 18.4516H13.6773C13.6773 21.0851 15.818 23.2258 18.4515 23.2258V21.2258ZM15.6773 18.4516C15.6773 16.9227 16.9226 15.6774 18.4515 15.6774V13.6774C15.818 13.6774 13.6773 15.8181 13.6773 18.4516H15.6773ZM18.4515 15.6774C19.9805 15.6774 21.2257 16.9227 21.2257 18.4516H23.2257C23.2257 15.8181 21.085 13.6774 18.4515 13.6774V15.6774ZM21.2257 18.4516C21.2257 19.9805 19.9805 21.2258 18.4515 21.2258V23.2258C21.085 23.2258 23.2257 21.0851 23.2257 18.4516H21.2257Z" fill="#C3C5C4" mask="url(#path-5-inside-3)"/>
<mask id="path-7-inside-4" fill="white">
<path d="M18.2515 19.7553L17.49 18.9938L16.897 19.5868L18.155 20.8449C18.2343 20.9245 18.3416 20.9677 18.4515 20.9677C18.4855 20.9677 18.5199 20.9636 18.5539 20.9553C18.6973 20.919 18.8105 20.8101 18.8533 20.6688L20.1113 16.4752L19.3079 16.2344L18.2515 19.7553Z"/>
</mask>
<path d="M18.2515 19.7553L17.49 18.9938L16.897 19.5868L18.155 20.8449C18.2343 20.9245 18.3416 20.9677 18.4515 20.9677C18.4855 20.9677 18.5199 20.9636 18.5539 20.9553C18.6973 20.919 18.8105 20.8101 18.8533 20.6688L20.1113 16.4752L19.3079 16.2344L18.2515 19.7553Z" fill="#C3C5C4"/>
<path d="M18.2515 19.7553L17.5444 20.4624L18.7282 21.6463L19.2093 20.0427L18.2515 19.7553ZM17.49 18.9938L18.1971 18.2867L17.49 17.5796L16.7829 18.2867L17.49 18.9938ZM16.897 19.5868L16.1899 18.8797L15.4828 19.5868L16.1899 20.2939L16.897 19.5868ZM18.155 20.8449L18.864 20.1396L18.8621 20.1378L18.155 20.8449ZM18.5539 20.9553L18.7937 21.9261L18.7991 21.9247L18.5539 20.9553ZM18.8533 20.6688L19.8103 20.9587L19.8111 20.9561L18.8533 20.6688ZM20.1113 16.4752L21.0692 16.7626L21.3566 15.8045L20.3984 15.5173L20.1113 16.4752ZM19.3079 16.2344L19.5949 15.2765L18.6373 14.9895L18.35 15.9471L19.3079 16.2344ZM18.9586 19.0482L18.1971 18.2867L16.7829 19.7009L17.5444 20.4624L18.9586 19.0482ZM16.7829 18.2867L16.1899 18.8797L17.6041 20.2939L18.1971 19.7009L16.7829 18.2867ZM16.1899 20.2939L17.4479 21.552L18.8621 20.1378L17.6041 18.8797L16.1899 20.2939ZM17.4461 21.5502C17.7169 21.8224 18.081 21.9677 18.4515 21.9677V19.9677C18.6022 19.9677 18.7517 20.0267 18.864 20.1396L17.4461 21.5502ZM18.4515 21.9677C18.5658 21.9677 18.6807 21.954 18.7937 21.9261L18.3141 19.9844C18.3591 19.9733 18.4053 19.9677 18.4515 19.9677V21.9677ZM18.7991 21.9247C19.2853 21.8018 19.6667 21.4328 19.8103 20.9587L17.8962 20.3789C17.9543 20.1873 18.1092 20.0362 18.3088 19.9858L18.7991 21.9247ZM19.8111 20.9561L21.0692 16.7626L19.1535 16.1879L17.8955 20.3814L19.8111 20.9561ZM20.3984 15.5173L19.5949 15.2765L19.0208 17.1923L19.8243 17.4331L20.3984 15.5173ZM18.35 15.9471L17.2937 19.468L19.2093 20.0427L20.2657 16.5218L18.35 15.9471Z" fill="#C3C5C4" mask="url(#path-7-inside-4)"/>
<mask id="path-9-inside-5" fill="white">
<path d="M2.93542 6.70968H13.8386V7.54839H2.93542V6.70968Z"/>
</mask>
<path d="M2.93542 6.70968H13.8386V7.54839H2.93542V6.70968Z" fill="#C3C5C4"/>
<path d="M2.93542 6.70968V5.70968H1.93542V6.70968H2.93542ZM13.8386 6.70968H14.8386V5.70968H13.8386V6.70968ZM13.8386 7.54839V8.54839H14.8386V7.54839H13.8386ZM2.93542 7.54839H1.93542V8.54839H2.93542V7.54839ZM2.93542 7.70968H13.8386V5.70968H2.93542V7.70968ZM12.8386 6.70968V7.54839H14.8386V6.70968H12.8386ZM13.8386 6.54839H2.93542V8.54839H13.8386V6.54839ZM3.93542 7.54839V6.70968H1.93542V7.54839H3.93542Z" fill="#C3C5C4" mask="url(#path-9-inside-5)"/>
<mask id="path-11-inside-6" fill="white">
<path d="M2.93542 8.3871H13.8386V9.22581H2.93542V8.3871Z"/>
</mask>
<path d="M2.93542 8.3871H13.8386V9.22581H2.93542V8.3871Z" fill="#C3C5C4"/>
<path d="M2.93542 8.3871V7.3871H1.93542V8.3871H2.93542ZM13.8386 8.3871H14.8386V7.3871H13.8386V8.3871ZM13.8386 9.22581V10.2258H14.8386V9.22581H13.8386ZM2.93542 9.22581H1.93542V10.2258H2.93542V9.22581ZM2.93542 9.3871H13.8386V7.3871H2.93542V9.3871ZM12.8386 8.3871V9.22581H14.8386V8.3871H12.8386ZM13.8386 8.22581H2.93542V10.2258H13.8386V8.22581ZM3.93542 9.22581V8.3871H1.93542V9.22581H3.93542Z" fill="#C3C5C4" mask="url(#path-11-inside-6)"/>
<mask id="path-13-inside-7" fill="white">
<path d="M2.93542 10.0645H13.8386V10.9032H2.93542V10.0645Z"/>
</mask>
<path d="M2.93542 10.0645H13.8386V10.9032H2.93542V10.0645Z" fill="#C3C5C4"/>
<path d="M2.93542 10.0645V9.06452H1.93542V10.0645H2.93542ZM13.8386 10.0645H14.8386V9.06452H13.8386V10.0645ZM13.8386 10.9032V11.9032H14.8386V10.9032H13.8386ZM2.93542 10.9032H1.93542V11.9032H2.93542V10.9032ZM2.93542 11.0645H13.8386V9.06452H2.93542V11.0645ZM12.8386 10.0645V10.9032H14.8386V10.0645H12.8386ZM13.8386 9.90322H2.93542V11.9032H13.8386V9.90322ZM3.93542 10.9032V10.0645H1.93542V10.9032H3.93542Z" fill="#C3C5C4" mask="url(#path-13-inside-7)"/>
<mask id="path-15-inside-8" fill="white">
<path d="M2.93542 11.7419H11.3225V12.5806H2.93542V11.7419Z"/>
</mask>
<path d="M2.93542 11.7419H11.3225V12.5806H2.93542V11.7419Z" fill="#C3C5C4"/>
<path d="M2.93542 11.7419V10.7419H1.93542V11.7419H2.93542ZM11.3225 11.7419H12.3225V10.7419H11.3225V11.7419ZM11.3225 12.5806V13.5806H12.3225V12.5806H11.3225ZM2.93542 12.5806H1.93542V13.5806H2.93542V12.5806ZM2.93542 12.7419H11.3225V10.7419H2.93542V12.7419ZM10.3225 11.7419V12.5806H12.3225V11.7419H10.3225ZM11.3225 11.5806H2.93542V13.5806H11.3225V11.5806ZM3.93542 12.5806V11.7419H1.93542V12.5806H3.93542Z" fill="#C3C5C4" mask="url(#path-15-inside-8)"/>
<mask id="path-17-inside-9" fill="white">
<path d="M2.93542 13.4194H11.3225V14.2581H2.93542V13.4194Z"/>
</mask>
<path d="M2.93542 13.4194H11.3225V14.2581H2.93542V13.4194Z" fill="#C3C5C4"/>
<path d="M2.93542 13.4194V12.4194H1.93542V13.4194H2.93542ZM11.3225 13.4194H12.3225V12.4194H11.3225V13.4194ZM11.3225 14.2581V15.2581H12.3225V14.2581H11.3225ZM2.93542 14.2581H1.93542V15.2581H2.93542V14.2581ZM2.93542 14.4194H11.3225V12.4194H2.93542V14.4194ZM10.3225 13.4194V14.2581H12.3225V13.4194H10.3225ZM11.3225 13.2581H2.93542V15.2581H11.3225V13.2581ZM3.93542 14.2581V13.4194H1.93542V14.2581H3.93542Z" fill="#C3C5C4" mask="url(#path-17-inside-9)"/>
<mask id="path-19-inside-10" fill="white">
<path d="M2.93542 15.0968H11.3225V15.9355H2.93542V15.0968Z"/>
</mask>
<path d="M2.93542 15.0968H11.3225V15.9355H2.93542V15.0968Z" fill="#C3C5C4"/>
<path d="M2.93542 15.0968V14.0968H1.93542V15.0968H2.93542ZM11.3225 15.0968H12.3225V14.0968H11.3225V15.0968ZM11.3225 15.9355V16.9355H12.3225V15.9355H11.3225ZM2.93542 15.9355H1.93542V16.9355H2.93542V15.9355ZM2.93542 16.0968H11.3225V14.0968H2.93542V16.0968ZM10.3225 15.0968V15.9355H12.3225V15.0968H10.3225ZM11.3225 14.9355H2.93542V16.9355H11.3225V14.9355ZM3.93542 15.9355V15.0968H1.93542V15.9355H3.93542Z" fill="#C3C5C4" mask="url(#path-19-inside-10)"/>
<mask id="path-21-inside-11" fill="white">
<path d="M2.93542 20.129H11.3225V20.9677H2.93542V20.129Z"/>
</mask>
<path d="M2.93542 20.129H11.3225V20.9677H2.93542V20.129Z" fill="#C3C5C4"/>
<path d="M2.93542 20.129V19.129H1.93542V20.129H2.93542ZM11.3225 20.129H12.3225V19.129H11.3225V20.129ZM11.3225 20.9677V21.9677H12.3225V20.9677H11.3225ZM2.93542 20.9677H1.93542V21.9677H2.93542V20.9677ZM2.93542 21.129H11.3225V19.129H2.93542V21.129ZM10.3225 20.129V20.9677H12.3225V20.129H10.3225ZM11.3225 19.9677H2.93542V21.9677H11.3225V19.9677ZM3.93542 20.9677V20.129H1.93542V20.9677H3.93542Z" fill="#C3C5C4" mask="url(#path-21-inside-11)"/>
<mask id="path-23-inside-12" fill="white">
<path d="M2.93542 21.8064H11.3225V22.6452H2.93542V21.8064Z"/>
</mask>
<path d="M2.93542 21.8064H11.3225V22.6452H2.93542V21.8064Z" fill="#C3C5C4"/>
<path d="M2.93542 21.8064V20.8064H1.93542V21.8064H2.93542ZM11.3225 21.8064H12.3225V20.8064H11.3225V21.8064ZM11.3225 22.6452V23.6452H12.3225V22.6452H11.3225ZM2.93542 22.6452H1.93542V23.6452H2.93542V22.6452ZM2.93542 22.8064H11.3225V20.8064H2.93542V22.8064ZM10.3225 21.8064V22.6452H12.3225V21.8064H10.3225ZM11.3225 21.6452H2.93542V23.6452H11.3225V21.6452ZM3.93542 22.6452V21.8064H1.93542V22.6452H3.93542Z" fill="#C3C5C4" mask="url(#path-23-inside-12)"/>
<mask id="path-25-inside-13" fill="white">
<path d="M2.93542 23.4839H11.3225V24.3226H2.93542V23.4839Z"/>
</mask>
<path d="M2.93542 23.4839H11.3225V24.3226H2.93542V23.4839Z" fill="#C3C5C4"/>
<path d="M2.93542 23.4839V22.4839H1.93542V23.4839H2.93542ZM11.3225 23.4839H12.3225V22.4839H11.3225V23.4839ZM11.3225 24.3226V25.3226H12.3225V24.3226H11.3225ZM2.93542 24.3226H1.93542V25.3226H2.93542V24.3226ZM2.93542 24.4839H11.3225V22.4839H2.93542V24.4839ZM10.3225 23.4839V24.3226H12.3225V23.4839H10.3225ZM11.3225 23.3226H2.93542V25.3226H11.3225V23.3226ZM3.93542 24.3226V23.4839H1.93542V24.3226H3.93542Z" fill="#C3C5C4" mask="url(#path-25-inside-13)"/>
<mask id="path-27-inside-14" fill="white">
<path d="M3.35486 3.35484H4.19357V4.19355H3.35486V3.35484Z"/>
</mask>
<path d="M3.35486 3.35484H4.19357V4.19355H3.35486V3.35484Z" fill="#C3C5C4"/>
<path d="M3.35486 3.35484V2.35484H2.35486V3.35484H3.35486ZM4.19357 3.35484H5.19357V2.35484H4.19357V3.35484ZM4.19357 4.19355V5.19355H5.19357V4.19355H4.19357ZM3.35486 4.19355H2.35486V5.19355H3.35486V4.19355ZM3.35486 4.35484H4.19357V2.35484H3.35486V4.35484ZM3.19357 3.35484V4.19355H5.19357V3.35484H3.19357ZM4.19357 3.19355H3.35486V5.19355H4.19357V3.19355ZM4.35486 4.19355V3.35484H2.35486V4.19355H4.35486Z" fill="#C3C5C4" mask="url(#path-27-inside-14)"/>
<mask id="path-29-inside-15" fill="white">
<path d="M5.03223 3.35484H5.87094V4.19355H5.03223V3.35484Z"/>
</mask>
<path d="M5.03223 3.35484H5.87094V4.19355H5.03223V3.35484Z" fill="#C3C5C4"/>
<path d="M5.03223 3.35484V2.35484H4.03223V3.35484H5.03223ZM5.87094 3.35484H6.87094V2.35484H5.87094V3.35484ZM5.87094 4.19355V5.19355H6.87094V4.19355H5.87094ZM5.03223 4.19355H4.03223V5.19355H5.03223V4.19355ZM5.03223 4.35484H5.87094V2.35484H5.03223V4.35484ZM4.87094 3.35484V4.19355H6.87094V3.35484H4.87094ZM5.87094 3.19355H5.03223V5.19355H5.87094V3.19355ZM6.03223 4.19355V3.35484H4.03223V4.19355H6.03223Z" fill="#C3C5C4" mask="url(#path-29-inside-15)"/>
<mask id="path-31-inside-16" fill="white">
<path d="M6.70972 3.35484H7.54843V4.19355H6.70972V3.35484Z"/>
</mask>
<path d="M6.70972 3.35484H7.54843V4.19355H6.70972V3.35484Z" fill="#C3C5C4"/>
<path d="M6.70972 3.35484V2.35484H5.70972V3.35484H6.70972ZM7.54843 3.35484H8.54843V2.35484H7.54843V3.35484ZM7.54843 4.19355V5.19355H8.54843V4.19355H7.54843ZM6.70972 4.19355H5.70972V5.19355H6.70972V4.19355ZM6.70972 4.35484H7.54843V2.35484H6.70972V4.35484ZM6.54843 3.35484V4.19355H8.54843V3.35484H6.54843ZM7.54843 3.19355H6.70972V5.19355H7.54843V3.19355ZM7.70972 4.19355V3.35484H5.70972V4.19355H7.70972Z" fill="#C3C5C4" mask="url(#path-31-inside-16)"/>
<mask id="path-33-inside-17" fill="white">
<path d="M8.38708 3.35484H13.8387V4.19355H8.38708V3.35484Z"/>
</mask>
<path d="M8.38708 3.35484H13.8387V4.19355H8.38708V3.35484Z" fill="#C3C5C4"/>
<path d="M8.38708 3.35484V2.35484H7.38708V3.35484H8.38708ZM13.8387 3.35484H14.8387V2.35484H13.8387V3.35484ZM13.8387 4.19355V5.19355H14.8387V4.19355H13.8387ZM8.38708 4.19355H7.38708V5.19355H8.38708V4.19355ZM8.38708 4.35484H13.8387V2.35484H8.38708V4.35484ZM12.8387 3.35484V4.19355H14.8387V3.35484H12.8387ZM13.8387 3.19355H8.38708V5.19355H13.8387V3.19355ZM9.38708 4.19355V3.35484H7.38708V4.19355H9.38708Z" fill="#C3C5C4" mask="url(#path-33-inside-17)"/>
</svg>
