<svg width="19" height="25" viewBox="0 0 19 25" fill="none" xmlns="http://www.w3.org/2000/svg">
<path d="M0.688097 4.54957L0.54165 4.69602V4.90312V23.4375C0.54165 24.0013 0.998712 24.4583 1.5625 24.4583H17.1875C17.7513 24.4583 18.2083 24.0013 18.2083 23.4375V22.8958H18.25V23.4375C18.25 24.0243 17.7743 24.5 17.1875 24.5H1.5625C0.975703 24.5 0.5 24.0243 0.5 23.4375V4.6875C0.5 4.68218 0.50214 4.67684 0.506141 4.67284L4.67284 0.506141C4.67677 0.502212 4.68209 0.500002 4.68768 0.5L17.1875 0.5C17.7743 0.5 18.25 0.975703 18.25 1.5625V14.6042H18.2083V1.5625C18.2083 0.998712 17.7513 0.54165 17.1875 0.54165H4.90312H4.69602L4.54957 0.688097L0.688097 4.54957Z" fill="#C3C5C4" stroke="#C3C5C4"/>
</svg>
