<svg width="24" height="21" viewBox="0 0 24 21" fill="none" xmlns="http://www.w3.org/2000/svg">
<mask id="path-1-inside-1" fill="white">
<path d="M10.4182 2.74937L8.56743 0.164177L8.56704 0.163784L8.45039 0H0V20.8167H23.566V2.74937H10.4182ZM22.7805 3.53491V5.49874H12.3867L10.981 3.53491H22.7805ZM0.785535 20.0311V0.785535H8.04584L10.0097 3.53491H10.0144L11.8565 6.10792C11.9331 6.21476 12.0536 6.27171 12.1758 6.2721V6.28428H22.7805V20.0311H0.785535Z"/>
</mask>
<path d="M10.4182 2.74937L8.56743 0.164177L8.56704 0.163784L8.45039 0H0V20.8167H23.566V2.74937H10.4182ZM22.7805 3.53491V5.49874H12.3867L10.981 3.53491H22.7805ZM0.785535 20.0311V0.785535H8.04584L10.0097 3.53491H10.0144L11.8565 6.10792C11.9331 6.21476 12.0536 6.27171 12.1758 6.2721V6.28428H22.7805V20.0311H0.785535Z" fill="#C3C5C4"/>
<path d="M10.4182 2.74937L9.60504 3.33147L9.90421 3.74937H10.4182V2.74937ZM8.56743 0.164177L9.38055 -0.417926L9.33275 -0.484689L9.27471 -0.542761L8.56743 0.164177ZM8.56704 0.163784L7.75252 0.743914L7.80086 0.811786L7.85977 0.870722L8.56704 0.163784ZM8.45039 0L9.26491 -0.58013L8.96587 -1H8.45039V0ZM0 0V-1H-1V0H0ZM0 20.8167H-1V21.8167H0V20.8167ZM23.566 20.8167V21.8167H24.566V20.8167H23.566ZM23.566 2.74937H24.566V1.74937H23.566V2.74937ZM22.7805 3.53491H23.7805V2.53491H22.7805V3.53491ZM22.7805 5.49874V6.49874H23.7805V5.49874H22.7805ZM12.3867 5.49874L11.5736 6.0808L11.8727 6.49874H12.3867V5.49874ZM10.981 3.53491V2.53491H9.0354L10.1678 4.11696L10.981 3.53491ZM0.785535 20.0311H-0.214465V21.0311H0.785535V20.0311ZM0.785535 0.785535V-0.214465H-0.214465V0.785535H0.785535ZM8.04584 0.785535L8.85957 0.204297L8.56046 -0.214465H8.04584V0.785535ZM10.0097 3.53491L9.19594 4.11614L9.49506 4.53491H10.0097V3.53491ZM10.0144 3.53491L10.8275 2.95279L10.5283 2.53491H10.0144V3.53491ZM11.8565 6.10792L11.0434 6.69004L11.0437 6.69058L11.8565 6.10792ZM12.1758 6.2721H13.1758V5.27531L12.179 5.27211L12.1758 6.2721ZM12.1758 6.28428H11.1758V7.28428H12.1758V6.28428ZM22.7805 6.28428H23.7805V5.28428H22.7805V6.28428ZM22.7805 20.0311V21.0311H23.7805V20.0311H22.7805ZM11.2313 2.16727L9.38055 -0.417926L7.75432 0.746279L9.60504 3.33147L11.2313 2.16727ZM9.27471 -0.542761L9.27432 -0.543154L7.85977 0.870722L7.86016 0.871115L9.27471 -0.542761ZM9.38156 -0.416346L9.26491 -0.58013L7.63586 0.58013L7.75252 0.743914L9.38156 -0.416346ZM8.45039 -1H0V1H8.45039V-1ZM-1 0V20.8167H1V0H-1ZM0 21.8167H23.566V19.8167H0V21.8167ZM24.566 20.8167V2.74937H22.566V20.8167H24.566ZM23.566 1.74937H10.4182V3.74937H23.566V1.74937ZM21.7805 3.53491V5.49874H23.7805V3.53491H21.7805ZM22.7805 4.49874H12.3867V6.49874H22.7805V4.49874ZM13.1999 4.91669L11.7941 2.95285L10.1678 4.11696L11.5736 6.0808L13.1999 4.91669ZM10.981 4.53491H22.7805V2.53491H10.981V4.53491ZM1.78553 20.0311V0.785535H-0.214465V20.0311H1.78553ZM0.785535 1.78553H8.04584V-0.214465H0.785535V1.78553ZM7.23211 1.36677L9.19594 4.11614L10.8234 2.95367L8.85957 0.204297L7.23211 1.36677ZM10.0097 4.53491H10.0144V2.53491H10.0097V4.53491ZM9.20128 4.11702L11.0434 6.69004L12.6696 5.52581L10.8275 2.95279L9.20128 4.11702ZM11.0437 6.69058C11.3163 7.07078 11.7447 7.27072 12.1726 7.2721L12.179 5.27211C12.3626 5.2727 12.5498 5.35874 12.6692 5.52527L11.0437 6.69058ZM11.1758 6.2721V6.28428H13.1758V6.2721H11.1758ZM12.1758 7.28428H22.7805V5.28428H12.1758V7.28428ZM21.7805 6.28428V20.0311H23.7805V6.28428H21.7805ZM22.7805 19.0311H0.785535V21.0311H22.7805V19.0311Z" fill="#C3C5C4" mask="url(#path-1-inside-1)"/>
<mask id="path-3-inside-2" fill="white">
<path d="M14.1396 10.2119C14.1396 8.91228 13.0827 7.85534 11.783 7.85534C10.4834 7.85534 9.42642 8.91228 9.42642 10.2119V11.783H7.85535V18.0673H15.7107V11.783H14.1396V10.2119ZM10.212 10.2119C10.212 9.3455 10.9166 8.64087 11.783 8.64087C12.6495 8.64087 13.3541 9.3455 13.3541 10.2119V11.783H10.212V10.2119ZM14.9252 12.5685V17.2818H8.64088V12.5685H9.42642H14.1396H14.9252Z"/>
</mask>
<path d="M14.1396 10.2119C14.1396 8.91228 13.0827 7.85534 11.783 7.85534C10.4834 7.85534 9.42642 8.91228 9.42642 10.2119V11.783H7.85535V18.0673H15.7107V11.783H14.1396V10.2119ZM10.212 10.2119C10.212 9.3455 10.9166 8.64087 11.783 8.64087C12.6495 8.64087 13.3541 9.3455 13.3541 10.2119V11.783H10.212V10.2119ZM14.9252 12.5685V17.2818H8.64088V12.5685H9.42642H14.1396H14.9252Z" fill="#C3C5C4"/>
<path d="M9.42642 11.783V12.783H10.4264V11.783H9.42642ZM7.85535 11.783V10.783H6.85535V11.783H7.85535ZM7.85535 18.0673H6.85535V19.0673H7.85535V18.0673ZM15.7107 18.0673V19.0673H16.7107V18.0673H15.7107ZM15.7107 11.783H16.7107V10.783H15.7107V11.783ZM14.1396 11.783H13.1396V12.783H14.1396V11.783ZM13.3541 11.783V12.783H14.3541V11.783H13.3541ZM10.212 11.783H9.21195V12.783H10.212V11.783ZM14.9252 12.5685H15.9252V11.5685H14.9252V12.5685ZM14.9252 17.2818V18.2818H15.9252V17.2818H14.9252ZM8.64088 17.2818H7.64088V18.2818H8.64088V17.2818ZM8.64088 12.5685V11.5685H7.64088V12.5685H8.64088ZM15.1396 10.2119C15.1396 8.35999 13.635 6.85534 11.783 6.85534V8.85534C12.5304 8.85534 13.1396 9.46456 13.1396 10.2119H15.1396ZM11.783 6.85534C9.93107 6.85534 8.42642 8.35999 8.42642 10.2119H10.4264C10.4264 9.46456 11.0356 8.85534 11.783 8.85534V6.85534ZM8.42642 10.2119V11.783H10.4264V10.2119H8.42642ZM9.42642 10.783H7.85535V12.783H9.42642V10.783ZM6.85535 11.783V18.0673H8.85535V11.783H6.85535ZM7.85535 19.0673H15.7107V17.0673H7.85535V19.0673ZM16.7107 18.0673V11.783H14.7107V18.0673H16.7107ZM15.7107 10.783H14.1396V12.783H15.7107V10.783ZM15.1396 11.783V10.2119H13.1396V11.783H15.1396ZM11.212 10.2119C11.212 9.89778 11.4689 9.64087 11.783 9.64087V7.64087C10.3643 7.64087 9.21195 8.79321 9.21195 10.2119H11.212ZM11.783 9.64087C12.0972 9.64087 12.3541 9.89778 12.3541 10.2119H14.3541C14.3541 8.79321 13.2017 7.64087 11.783 7.64087V9.64087ZM12.3541 10.2119V11.783H14.3541V10.2119H12.3541ZM13.3541 10.783H10.212V12.783H13.3541V10.783ZM11.212 11.783V10.2119H9.21195V11.783H11.212ZM13.9252 12.5685V17.2818H15.9252V12.5685H13.9252ZM14.9252 16.2818H8.64088V18.2818H14.9252V16.2818ZM9.64088 17.2818V12.5685H7.64088V17.2818H9.64088ZM8.64088 13.5685H9.42642V11.5685H8.64088V13.5685ZM9.42642 13.5685H14.1396V11.5685H9.42642V13.5685ZM14.1396 13.5685H14.9252V11.5685H14.1396V13.5685Z" fill="#C3C5C4" mask="url(#path-3-inside-2)"/>
<mask id="path-5-inside-3" fill="white">
<path d="M11.3902 16.0477V16.4962C11.3902 16.7134 11.5658 16.889 11.783 16.889C12.0002 16.889 12.1758 16.7134 12.1758 16.4962V16.0477C12.8517 15.8721 13.3541 15.2625 13.3541 14.5324C13.3541 13.6659 12.6494 12.9613 11.783 12.9613C10.9165 12.9613 10.2119 13.6659 10.2119 14.5324C10.2119 15.2625 10.7143 15.8721 11.3902 16.0477ZM11.783 13.7469C12.2162 13.7469 12.5685 14.0992 12.5685 14.5324C12.5685 14.9656 12.2162 15.3179 11.783 15.3179C11.3498 15.3179 10.9974 14.9656 10.9974 14.5324C10.9974 14.0992 11.3498 13.7469 11.783 13.7469Z"/>
</mask>
<path d="M11.3902 16.0477V16.4962C11.3902 16.7134 11.5658 16.889 11.783 16.889C12.0002 16.889 12.1758 16.7134 12.1758 16.4962V16.0477C12.8517 15.8721 13.3541 15.2625 13.3541 14.5324C13.3541 13.6659 12.6494 12.9613 11.783 12.9613C10.9165 12.9613 10.2119 13.6659 10.2119 14.5324C10.2119 15.2625 10.7143 15.8721 11.3902 16.0477ZM11.783 13.7469C12.2162 13.7469 12.5685 14.0992 12.5685 14.5324C12.5685 14.9656 12.2162 15.3179 11.783 15.3179C11.3498 15.3179 10.9974 14.9656 10.9974 14.5324C10.9974 14.0992 11.3498 13.7469 11.783 13.7469Z" fill="#C3C5C4"/>
<path d="M11.3902 16.0477H12.3902V15.2742L11.6416 15.0798L11.3902 16.0477ZM12.1758 16.0477L11.9244 15.0798L11.1758 15.2742V16.0477H12.1758ZM10.3902 16.0477V16.4962H12.3902V16.0477H10.3902ZM10.3902 16.4962C10.3902 17.2657 11.0135 17.889 11.783 17.889V15.889C12.1181 15.889 12.3902 16.1611 12.3902 16.4962H10.3902ZM11.783 17.889C12.5525 17.889 13.1758 17.2657 13.1758 16.4962H11.1758C11.1758 16.1611 11.4479 15.889 11.783 15.889V17.889ZM13.1758 16.4962V16.0477H11.1758V16.4962H13.1758ZM12.4271 17.0156C13.5261 16.7301 14.3541 15.7362 14.3541 14.5324H12.3541C12.3541 14.7889 12.1773 15.0141 11.9244 15.0798L12.4271 17.0156ZM14.3541 14.5324C14.3541 13.1137 13.2017 11.9613 11.783 11.9613V13.9613C12.0971 13.9613 12.3541 14.2182 12.3541 14.5324H14.3541ZM11.783 11.9613C10.3643 11.9613 9.21191 13.1137 9.21191 14.5324H11.2119C11.2119 14.2182 11.4688 13.9613 11.783 13.9613V11.9613ZM9.21191 14.5324C9.21191 15.7362 10.0399 16.7301 11.1388 17.0156L11.6416 15.0798C11.3887 15.0141 11.2119 14.7889 11.2119 14.5324H9.21191ZM11.783 14.7469C11.6639 14.7469 11.5685 14.6515 11.5685 14.5324H13.5685C13.5685 13.5469 12.7685 12.7469 11.783 12.7469V14.7469ZM11.5685 14.5324C11.5685 14.4133 11.6639 14.3179 11.783 14.3179V16.3179C12.7685 16.3179 13.5685 15.5179 13.5685 14.5324H11.5685ZM11.783 14.3179C11.902 14.3179 11.9974 14.4133 11.9974 14.5324H9.99745C9.99745 15.5179 10.7975 16.3179 11.783 16.3179V14.3179ZM11.9974 14.5324C11.9974 14.6515 11.902 14.7469 11.783 14.7469V12.7469C10.7975 12.7469 9.99745 13.5469 9.99745 14.5324H11.9974Z" fill="#C3C5C4" mask="url(#path-5-inside-3)"/>
</svg>
