<svg width="25" height="25" viewBox="0 0 25 25" fill="none" xmlns="http://www.w3.org/2000/svg">
<path d="M0.688097 4.54957L0.54165 4.69602V4.90312V23.4375C0.54165 24.0013 0.998712 24.4583 1.5625 24.4583H17.1875C17.7513 24.4583 18.2083 24.0013 18.2083 23.4375V22.8958H18.25V23.4375C18.25 24.0243 17.7743 24.5 17.1875 24.5H1.5625C0.975703 24.5 0.5 24.0243 0.5 23.4375V4.6875C0.5 4.68218 0.50214 4.67684 0.506141 4.67284L4.67284 0.506141C4.67677 0.502212 4.68209 0.500002 4.68768 0.5L17.1875 0.5C17.7743 0.5 18.25 0.975703 18.25 1.5625V14.6042H18.2083V1.5625C18.2083 0.998712 17.7513 0.54165 17.1875 0.54165H4.90312H4.69602L4.54957 0.688097L0.688097 4.54957Z" fill="#C3C5C4" stroke="#C3C5C4"/>
<path d="M4.66565 3.64586V1.02086H4.7073V3.64586C4.7073 4.23266 4.2316 4.70836 3.6448 4.70836H3.10315V4.66671H3.6448C4.20859 4.66671 4.66565 4.20965 4.66565 3.64586Z" fill="#C3C5C4" stroke="#C3C5C4"/>
<path d="M14.0615 17.6875H14.5615V17.1875V7.81249V7.31249H14.0615H4.68647H4.18647V7.81249V17.1875V17.6875H4.68647H14.0615ZM4.16562 7.27084H14.5823C14.5938 7.27084 14.6031 7.28014 14.6031 7.29164V17.7083C14.6031 17.7198 14.5938 17.7292 14.5823 17.7292H4.16562C4.15412 17.7292 4.14478 17.7198 4.14478 17.7083V7.29169C4.14478 7.28019 4.15412 7.27084 4.16562 7.27084Z" fill="#C3C5C4" stroke="#C3C5C4"/>
<path d="M7.2699 14.0833V7.79166H7.31155V14.0833H7.2699Z" fill="#C3C5C4" stroke="#C3C5C4"/>
<path d="M7.2699 17.2083V16.6458H7.31155V17.2083H7.2699Z" fill="#C3C5C4" stroke="#C3C5C4"/>
<path d="M7.79065 12V11.9583H10.4365V12H7.79065Z" fill="#C3C5C4" stroke="#C3C5C4"/>
<path d="M12.999 12V11.9583H14.0824V12H12.999Z" fill="#C3C5C4" stroke="#C3C5C4"/>
<path d="M23.0507 12.4854C23.0426 12.4773 23.0294 12.4772 23.0212 12.4854C23.0212 12.4854 23.0212 12.4854 23.0212 12.4854L15.0885 20.4181L23.0507 12.4854ZM23.0507 12.4854L24.4928 13.9275C24.5008 13.9356 24.5009 13.9487 24.4928 13.9569L23.0507 12.4854ZM16.1917 21.4921L16.5453 21.8456L16.8988 21.4921L24.0952 14.2958L24.4487 13.9422L24.0952 13.5886L23.3895 12.8829L23.0359 12.5294L22.6824 12.8829L15.486 20.0793L15.1325 20.4328L15.486 20.7864L16.1917 21.4921ZM24.4927 13.957L16.5599 21.8897C16.556 21.8936 16.5507 21.8959 16.5451 21.8959L16.5453 22.3959C16.4072 22.3959 16.2747 22.3409 16.1771 22.2433L14.7349 20.8011L24.4927 13.957Z" fill="#C3C5C4" stroke="#C3C5C4"/>
<path d="M15.124 21.3542V21.8542H15.624H16.1657V21.8959H15.1032C15.0917 21.8959 15.0824 21.8865 15.0824 21.875V20.8125H15.124V21.3542V21.3542Z" fill="#C3C5C4" stroke="#C3C5C4"/>
<path d="M2.5824 22.4166V22.375H4.7074V22.4166H2.5824Z" fill="#C3C5C4" stroke="#C3C5C4"/>
<path d="M6.74902 22.4166V22.375H6.79067V22.4166H6.74902Z" fill="#C3C5C4" stroke="#C3C5C4"/>
</svg>
