<svg width="24" height="24" viewBox="0 0 24 24" fill="none" xmlns="http://www.w3.org/2000/svg">
<path d="M18.8624 6.525C18.7124 6.375 18.4874 6.375 18.3374 6.525L16.8749 7.9875L16.4999 7.6125C16.3499 7.4625 16.1249 7.4625 15.9749 7.6125C15.8249 7.7625 15.8249 7.9875 15.9749 8.1375L16.6124 8.775C16.6874 8.85 16.7999 8.8875 16.8749 8.8875C16.9874 8.8875 17.0624 8.85 17.1374 8.775L18.8624 7.05C19.0124 6.9 19.0124 6.6375 18.8624 6.525Z" fill="#C3C5C4"/>
<path d="M18.3374 9.9L16.8749 11.3625L16.4999 10.9875C16.3499 10.8375 16.1249 10.8375 15.9749 10.9875C15.8249 11.1375 15.8249 11.3625 15.9749 11.5125L16.6124 12.15C16.6874 12.225 16.7999 12.2625 16.8749 12.2625C16.9874 12.2625 17.0624 12.225 17.1374 12.15L18.8624 10.425C19.0124 10.275 19.0124 10.05 18.8624 9.9C18.7124 9.75 18.4499 9.75 18.3374 9.9Z" fill="#C3C5C4"/>
<path d="M8.625 12.75C8.4 12.75 8.25 12.9 8.25 13.125C8.25 13.35 8.4 13.5 8.625 13.5H9.375C9.6 13.5 9.75 13.35 9.75 13.125C9.75 12.9 9.6 12.75 9.375 12.75H8.625Z" fill="#C3C5C4"/>
<path d="M16.875 12.75C16.65 12.75 16.5 12.9 16.5 13.125C16.5 13.35 16.65 13.5 16.875 13.5H19.125V18.8625L15.8625 20.175L12.1125 16.05L9.6375 17.2875C9.225 17.475 8.775 17.5125 8.3625 17.3625L7.875 17.2125C7.8 17.175 7.7625 17.1 7.7625 17.0625C7.7625 17.025 7.7625 16.95 7.8375 16.9125L11.025 14.5875C11.0625 14.5875 11.1375 14.55 11.175 14.5125C11.175 14.5125 11.175 14.475 11.2125 14.475L12.5625 13.5H13.125C13.35 13.5 13.5 13.35 13.5 13.125C13.5 12.9 13.35 12.75 13.125 12.75H12.2625L10.9125 13.725L9.9 12.75H5.25H4.875H0V19.5H2.25C2.475 19.5 2.625 19.35 2.625 19.125C2.625 18.9 2.475 18.75 2.25 18.75H0.75V13.5H4.5V18.75H3.75C3.525 18.75 3.375 18.9 3.375 19.125C3.375 19.35 3.525 19.5 3.75 19.5H4.7625L9.9 23.55C10.1625 23.775 10.4625 23.8875 10.8 23.8875C10.9875 23.8875 11.175 23.85 11.325 23.775C11.475 23.7 11.5875 23.5875 11.7 23.5125L12.1125 23.925C12.15 23.9625 12.15 23.9625 12.1875 23.9625L12.225 24C12.2625 24 12.3375 24 12.375 24C12.4125 24 12.45 24 12.525 23.9625C12.525 23.9625 12.5625 23.9625 12.5625 23.925C12.6 23.925 12.6 23.8875 12.6375 23.8875L15.975 20.925L19.6125 19.4625H24V12.75H16.875ZM14.775 21L11.5125 17.7375C11.3625 17.5875 11.1375 17.5875 10.9875 17.7375C10.8375 17.8875 10.8375 18.1125 10.9875 18.2625L14.2125 21.4875L13.575 22.05L10.3875 18.8625C10.2375 18.7125 10.0125 18.7125 9.8625 18.8625C9.7125 19.0125 9.7125 19.2375 9.8625 19.3875L13.0125 22.5375L12.375 23.1L9.2625 19.9875C9.1125 19.8375 8.8875 19.8375 8.7375 19.9875C8.5875 20.1375 8.5875 20.3625 8.7375 20.5125L11.175 22.95C11.1 22.9875 11.0625 23.025 10.9875 23.0625C10.8 23.1375 10.5375 23.1 10.35 22.95L5.25 18.9375V13.5H9.6L10.275 14.175L7.3875 16.3125C7.125 16.5 6.975 16.875 7.0125 17.2125C7.05 17.55 7.3125 17.85 7.65 17.9625L8.1 18.1125C8.7 18.3 9.375 18.2625 9.975 17.9625L11.9625 16.9875L15.2625 20.625L14.775 21ZM23.25 18.75H19.875V13.5H23.25V18.75Z" fill="#C3C5C4"/>
<path d="M16.875 4.125C16.875 3.9 16.725 3.75 16.5 3.75H16.125C15.9 3.75 15.75 3.9 15.75 4.125C15.75 4.35 15.9 4.5 16.125 4.5H16.5C16.725 4.5 16.875 4.35 16.875 4.125Z" fill="#C3C5C4"/>
<path d="M14.625 4.5H15C15.225 4.5 15.375 4.35 15.375 4.125C15.375 3.9 15.225 3.75 15 3.75H14.625C14.4 3.75 14.25 3.9 14.25 4.125C14.25 4.35 14.4 4.5 14.625 4.5Z" fill="#C3C5C4"/>
<path d="M17.625 4.5H18C18.225 4.5 18.375 4.35 18.375 4.125C18.375 3.9 18.225 3.75 18 3.75H17.625C17.4 3.75 17.25 3.9 17.25 4.125C17.25 4.35 17.4 4.5 17.625 4.5Z" fill="#C3C5C4"/>
<path d="M3.375 12.375C3.6 12.375 3.75 12.1875 3.75 12V0.75H16.5V4.125C16.5 4.35 16.65 4.5 16.875 4.5H20.25V11.625C20.25 11.85 20.4 12 20.625 12C20.85 12 21 11.8125 21 11.625V4.125C21 4.0125 20.9625 3.9375 20.8875 3.8625L17.1375 0.1125C17.0625 0.0375 16.9875 0 16.875 0H3.375C3.15 0 3 0.1875 3 0.375V12C3 12.225 3.15 12.375 3.375 12.375ZM17.25 1.3125L19.6875 3.75H17.25V1.3125Z" fill="#C3C5C4"/>
<path d="M18.375 2.625C18.375 2.4 18.225 2.25 18 2.25H13.125C12.9 2.25 12.75 2.4 12.75 2.625C12.75 2.85 12.9 3 13.125 3H18C18.225 3 18.375 2.85 18.375 2.625Z" fill="#C3C5C4"/>
<path d="M9.375 9C9.6 9 9.75 8.85 9.75 8.625C9.75 8.4 9.6 8.25 9.375 8.25H9C8.775 8.25 8.625 8.4 8.625 8.625C8.625 8.85 8.775 9 9 9H9.375Z" fill="#C3C5C4"/>
<path d="M7.875 9C8.1 9 8.25 8.85 8.25 8.625C8.25 8.4 8.1 8.25 7.875 8.25H7.5C7.275 8.25 7.125 8.4 7.125 8.625C7.125 8.85 7.275 9 7.5 9H7.875Z" fill="#C3C5C4"/>
<path d="M10.875 9C11.1 9 11.25 8.85 11.25 8.625C11.25 8.4 11.1 8.25 10.875 8.25H10.5C10.275 8.25 10.125 8.4 10.125 8.625C10.125 8.85 10.275 9 10.5 9H10.875Z" fill="#C3C5C4"/>
<path d="M13.875 6.75H6C5.775 6.75 5.625 6.9 5.625 7.125C5.625 7.35 5.775 7.5 6 7.5H13.875C14.1 7.5 14.25 7.35 14.25 7.125C14.25 6.9 14.1 6.75 13.875 6.75Z" fill="#C3C5C4"/>
<path d="M12 9H13.875C14.1 9 14.25 8.85 14.25 8.625C14.25 8.4 14.1 8.25 13.875 8.25H12C11.775 8.25 11.625 8.4 11.625 8.625C11.625 8.85 11.775 9 12 9Z" fill="#C3C5C4"/>
<path d="M14.25 10.875C14.25 10.65 14.1 10.5 13.875 10.5H6C5.775 10.5 5.625 10.65 5.625 10.875C5.625 11.1 5.775 11.25 6 11.25H13.875C14.1 11.25 14.25 11.1 14.25 10.875Z" fill="#C3C5C4"/>
</svg>
