<svg width="38" height="48" viewBox="0 0 38 48" fill="none" xmlns="http://www.w3.org/2000/svg">
<path d="M33.0561 6.2889H28.7136V4.34622C28.7136 3.71769 28.028 3.43203 27.3994 3.43203H24.0283C23.2284 1.14649 21.2285 0.00371488 18.943 0.00371488C16.6826 -0.0812629 14.6266 1.30474 13.8577 3.43203H10.5436C9.9151 3.43203 9.28657 3.71769 9.28657 4.34622V6.2889H4.94395C2.37055 6.31635 0.265247 8.34641 0.144287 10.9171V43.6574C0.144287 46.1715 2.42983 47.9999 4.94395 47.9999H33.0561C35.5702 47.9999 37.8557 46.1715 37.8557 43.6574V10.9172C37.7348 8.34641 35.6295 6.31635 33.0561 6.2889ZM11.572 5.71757H14.7146C15.2632 5.65064 15.7039 5.2333 15.8003 4.68909C16.1387 3.21548 17.4315 2.15769 18.943 2.11788C20.4404 2.16327 21.7138 3.22434 22.0284 4.68909C22.1309 5.25211 22.6006 5.67481 23.1712 5.71757H26.4281V10.2887H11.572V5.71757ZM35.5702 43.6575C35.5702 44.9145 34.3131 45.7145 33.0561 45.7145H4.94395C3.68689 45.7145 2.42983 44.9145 2.42983 43.6575V10.9172C2.54641 9.60872 3.63046 8.5985 4.94395 8.57455H9.28646V11.4886C9.34683 12.1289 9.90132 12.6078 10.5435 12.5743H27.3993C28.0533 12.6101 28.6252 12.1377 28.7135 11.4886V8.57444H33.056C34.3694 8.5985 35.4535 9.60861 35.5701 10.9171V43.6575H35.5702Z" fill="#35A0CD"/>
<path d="M14.6003 25.5446C14.1717 25.0928 13.4602 25.0673 13.0004 25.4875L9.3435 28.9729L7.80077 27.373C7.37217 26.9212 6.66063 26.8958 6.20085 27.3159C5.75824 27.7796 5.75824 28.5092 6.20085 28.9729L8.54348 31.3728C8.74625 31.5998 9.03913 31.7254 9.34339 31.7156C9.6448 31.7114 9.93233 31.5881 10.1433 31.3728L14.6001 27.1445C15.0419 26.7392 15.0715 26.0524 14.666 25.6107C14.6453 25.5876 14.6233 25.5656 14.6003 25.5446Z" fill="#35A0CD"/>
<path d="M30.9991 28.0016H17.8573C17.2262 28.0016 16.7145 28.5132 16.7145 29.1443C16.7145 29.7755 17.2262 30.2871 17.8573 30.2871H30.9991C31.6303 30.2871 32.1419 29.7755 32.1419 29.1443C32.1419 28.5132 31.6303 28.0016 30.9991 28.0016Z" fill="#35A0CD"/>
<path d="M14.6003 16.4025C14.1717 15.9507 13.4602 15.9252 13.0004 16.3454L9.3435 19.8308L7.80077 18.2309C7.37217 17.7791 6.66063 17.7536 6.20085 18.1738C5.75824 18.6375 5.75824 19.3671 6.20085 19.8308L8.54348 22.2306C8.74625 22.4577 9.03913 22.5832 9.34339 22.5735C9.6448 22.5692 9.93233 22.446 10.1433 22.2306L14.6001 18.0024C15.0419 17.5971 15.0715 16.9103 14.666 16.4685C14.6453 16.4455 14.6233 16.4235 14.6003 16.4025Z" fill="#35A0CD"/>
<path d="M30.9991 18.8594H17.8573C17.2262 18.8594 16.7145 19.371 16.7145 20.0022C16.7145 20.6333 17.2262 21.1449 17.8573 21.1449H30.9991C31.6303 21.1449 32.1419 20.6333 32.1419 20.0022C32.1419 19.371 31.6303 18.8594 30.9991 18.8594Z" fill="#35A0CD"/>
<path d="M14.6003 34.6867C14.1717 34.2349 13.4602 34.2095 13.0004 34.6296L9.3435 38.115L7.80077 36.5151C7.37217 36.0633 6.66063 36.0379 6.20085 36.458C5.75824 36.9217 5.75824 37.6513 6.20085 38.115L8.54348 40.5148C8.74625 40.7419 9.03913 40.8674 9.34339 40.8577C9.6448 40.8534 9.93233 40.7302 10.1433 40.5148L14.6001 36.2866C15.0419 35.8813 15.0715 35.1945 14.666 34.7528C14.6453 34.7298 14.6233 34.7078 14.6003 34.6867Z" fill="#35A0CD"/>
<path d="M30.9991 37.1437H17.8573C17.2262 37.1437 16.7145 37.6553 16.7145 38.2865C16.7145 38.9176 17.2262 39.4292 17.8573 39.4292H30.9991C31.6303 39.4292 32.1419 38.9176 32.1419 38.2865C32.1419 37.6553 31.6303 37.1437 30.9991 37.1437Z" fill="#35A0CD"/>
</svg>
