<svg width="20" height="25" viewBox="0 0 20 25" fill="none" xmlns="http://www.w3.org/2000/svg">
<path d="M18.7502 1.66667C18.7502 1.66667 18.75 1.66667 18.75 1.66667H13.3333V0.416667C13.3334 0.186615 13.1469 5.20942e-05 12.9169 1.09087e-08C12.9168 1.09087e-08 12.9167 1.09087e-08 12.9167 1.09087e-08H6.25C6.01995 -5.20724e-05 5.83338 0.186406 5.83333 0.416458C5.83333 0.41651 5.83333 0.416615 5.83333 0.416667V1.66667H0.416667C0.186615 1.66661 5.20942e-05 1.85307 1.09087e-08 2.08312C1.09087e-08 2.08318 1.09087e-08 2.08328 1.09087e-08 2.08333V24.5833C-5.20724e-05 24.8134 0.186406 24.9999 0.416458 25C0.41651 25 0.416615 25 0.416667 25H18.75C18.98 25.0001 19.1666 24.8136 19.1667 24.5835C19.1667 24.5835 19.1667 24.5834 19.1667 24.5833V2.08333C19.1667 1.85328 18.9803 1.66672 18.7502 1.66667ZM6.66667 0.833333H12.5V3.33333H6.66667V0.833333ZM18.3333 24.1667H0.833333V2.5H5.83333V3.75C5.83328 3.98005 6.01974 4.16661 6.24979 4.16667C6.24984 4.16667 6.24995 4.16667 6.25 4.16667H12.9167C13.1467 4.16672 13.3333 3.98026 13.3333 3.75021C13.3333 3.75016 13.3333 3.75005 13.3333 3.75V2.5H18.3333V24.1667Z" fill="#C3C5C4"/>
<path d="M10.8333 19.1667H1.66663V20H10.8333V19.1667Z" fill="#C3C5C4"/>
<path d="M17.5 19.1667H11.6666V20H17.5V19.1667Z" fill="#C3C5C4"/>
<path d="M17.5 20.8333H1.66663V21.6667H17.5V20.8333Z" fill="#C3C5C4"/>
<path d="M8.33329 22.5H1.66663V23.3333H8.33329V22.5Z" fill="#C3C5C4"/>
<path d="M17.5 22.5H9.16663V23.3333H17.5V22.5Z" fill="#C3C5C4"/>
<path d="M4.5835 12.0833C4.58345 12.0833 4.58334 12.0833 4.58329 12.0833H2.08329C1.85324 12.0833 1.66668 12.2697 1.66663 12.4998C1.66663 12.4998 1.66663 12.4999 1.66663 12.5V17.9167C1.66657 18.1467 1.85303 18.3333 2.08308 18.3333C2.08314 18.3333 2.08324 18.3333 2.08329 18.3333H4.58329C4.81334 18.3334 4.99991 18.1469 4.99996 17.9169C4.99996 17.9168 4.99996 17.9167 4.99996 17.9167V12.5C5.00001 12.2699 4.81355 12.0834 4.5835 12.0833ZM4.16663 17.5H2.49996V12.9167H4.16663V17.5Z" fill="#C3C5C4"/>
<path d="M8.75025 10.4167C8.7502 10.4167 8.75009 10.4167 8.75004 10.4167H6.25004C6.01999 10.4166 5.83343 10.6031 5.83337 10.8331C5.83337 10.8332 5.83337 10.8333 5.83337 10.8333V17.9167C5.83332 18.1467 6.01978 18.3333 6.24983 18.3333C6.24988 18.3333 6.24999 18.3333 6.25004 18.3333H8.75004C8.98009 18.3334 9.16666 18.1469 9.16671 17.9169C9.16671 17.9168 9.16671 17.9167 9.16671 17.9167V10.8333C9.16676 10.6033 8.9803 10.4167 8.75025 10.4167ZM8.33337 17.5H6.66671V11.25H8.33337V17.5Z" fill="#C3C5C4"/>
<path d="M12.9169 8.75C12.9168 8.75 12.9167 8.75 12.9167 8.75H10.4167C10.1866 8.74995 10.0001 8.93641 10 9.16646C10 9.16651 10 9.16661 10 9.16667V17.9167C9.99995 18.1467 10.1864 18.3333 10.4165 18.3333C10.4165 18.3333 10.4166 18.3333 10.4167 18.3333H12.9167C13.1467 18.3334 13.3333 18.1469 13.3333 17.9169C13.3333 17.9168 13.3333 17.9167 13.3333 17.9167V9.16667C13.3334 8.93661 13.1469 8.75005 12.9169 8.75ZM12.5 17.5H10.8333V9.58333H12.5V17.5Z" fill="#C3C5C4"/>
<path d="M17.0835 7.08333C17.0834 7.08333 17.0833 7.08333 17.0833 7.08333H14.5833C14.3532 7.08328 14.1667 7.26973 14.1666 7.49979C14.1666 7.49984 14.1666 7.49994 14.1666 7.49999V17.9167C14.1666 18.1467 14.353 18.3333 14.5831 18.3333C14.5831 18.3333 14.5832 18.3333 14.5833 18.3333H17.0833C17.3133 18.3334 17.4999 18.1469 17.5 17.9169C17.5 17.9168 17.5 17.9167 17.5 17.9167V7.49999C17.5 7.26994 17.3136 7.08338 17.0835 7.08333ZM16.6666 17.5H15V7.91666H16.6666V17.5Z" fill="#C3C5C4"/>
<path d="M17.0015 4.17479L12.8348 5.00812C12.7815 5.0188 12.7308 5.03984 12.6855 5.07L9.04047 7.5H5.41661C5.33854 7.5 5.26203 7.52198 5.19588 7.56349L1.86255 9.64682L2.30406 10.3532L5.53604 8.33333H9.16661C9.24885 8.33328 9.32927 8.30896 9.39776 8.26333L13.0792 5.8089L17.1651 4.99182L17.0015 4.17479Z" fill="#C3C5C4"/>
</svg>
