<svg width="53" height="47" viewBox="0 0 53 47" fill="none" xmlns="http://www.w3.org/2000/svg">
<path d="M23.4304 6.18333L19.2682 0.369233L19.2673 0.36835L19.0049 0H0V46.8167H53V6.18333H23.4304ZM51.2333 7.95V12.3667H27.8577L24.6962 7.95H51.2333ZM1.76667 45.05V1.76667H18.0951L22.5118 7.95H22.5224L26.6652 13.7367C26.8374 13.977 27.1086 14.1051 27.3833 14.106V14.1333H51.2333V45.05H1.76667Z" fill="#35A0CD"/>
<path d="M31.8 22.9667C31.8 20.0437 29.4229 17.6667 26.5 17.6667C23.577 17.6667 21.2 20.0437 21.2 22.9667V26.5H17.6667V40.6333H35.3333V26.5H31.8V22.9667ZM22.9667 22.9667C22.9667 21.018 24.5514 19.4333 26.5 19.4333C28.4486 19.4333 30.0333 21.018 30.0333 22.9667V26.5H22.9667V22.9667ZM33.5667 28.2667V38.8667H19.4333V28.2667H21.2H31.8H33.5667Z" fill="#35A0CD"/>
<path d="M25.6167 36.0912V37.1C25.6167 37.5885 26.0115 37.9833 26.5 37.9833C26.9885 37.9833 27.3833 37.5885 27.3833 37.1V36.0912C28.9036 35.6964 30.0333 34.3254 30.0333 32.6833C30.0333 30.7347 28.4486 29.15 26.5 29.15C24.5514 29.15 22.9667 30.7347 22.9667 32.6833C22.9667 34.3254 24.0965 35.6964 25.6167 36.0912ZM26.5 30.9167C27.4743 30.9167 28.2667 31.709 28.2667 32.6833C28.2667 33.6576 27.4743 34.45 26.5 34.45C25.5257 34.45 24.7333 33.6576 24.7333 32.6833C24.7333 31.709 25.5257 30.9167 26.5 30.9167Z" fill="#35A0CD"/>
</svg>
