<svg width="24" height="24" viewBox="0 0 24 24" fill="none" xmlns="http://www.w3.org/2000/svg">
<path d="M22.0645 5.41935H21.6774V0H2.32258V5.41935H1.93548C0.868322 5.41935 0 6.28768 0 7.35484V19.7419C0 20.8091 0.868322 21.6774 1.93548 21.6774H6.96774V23.2258H5.41935V24H18.5806V23.2258H17.0323V21.6774H22.0645C23.1317 21.6774 24 20.8091 24 19.7419V7.35484C24 6.28768 23.1317 5.41935 22.0645 5.41935ZM3.09677 3.87097H20.9032V16.2581H3.09677V3.87097ZM20.9032 0.774194V3.09677H3.09677V0.774194H20.9032ZM1.93548 6.19355H2.32258V17.0323H21.6774V6.19355H22.0645C22.7047 6.19355 23.2258 6.71465 23.2258 7.35484V17.8065H0.774194V7.35484C0.774194 6.71465 1.2953 6.19355 1.93548 6.19355ZM16.2581 23.2258H7.74194V21.6774H16.2581V23.2258ZM22.0645 20.9032H1.93548C1.2953 20.9032 0.774194 20.3821 0.774194 19.7419V18.5806H23.2258V19.7419C23.2258 20.3821 22.7047 20.9032 22.0645 20.9032Z" fill="#C3C5C4"/>
<path d="M5 2H6V3H5V2Z" fill="#C3C5C4"/>
<path d="M7 2H8V3H7V2Z" fill="#C3C5C4"/>
<path d="M10.5496 8.88324L9.2 8.49803V8.39158C9.69844 8.01595 10 7.42506 10 6.79979V6.08291C10 5.0076 9.19961 4.09636 8.17754 4.00748C7.61758 3.95904 7.06035 4.14754 6.64883 4.52512C6.23633 4.9027 6 5.44046 6 5.99931V6.7994C6 7.42467 6.30156 8.01595 6.8 8.39119V8.49764L5.45039 8.88324C4.59648 9.1276 4 9.91851 4 10.8067V12H12V10.8067C12 9.91851 11.4035 9.1276 10.5496 8.88324ZM11.2 11.1999H4.8V10.8067C4.8 10.2734 5.15801 9.79897 5.67031 9.65246L7.6 9.10123V7.94758L7.40117 7.83194C7.0248 7.61278 6.8 7.2266 6.8 6.7994V5.99931C6.8 5.66412 6.94199 5.34123 7.18965 5.11444C7.44004 4.88434 7.76562 4.77319 8.10879 4.80406C8.72031 4.85719 9.2 5.41838 9.2 6.08252V6.7994C9.2 7.2266 8.9752 7.61278 8.59883 7.83194L8.4 7.94758V9.10123L10.3297 9.65246C10.842 9.79936 11.2 10.2738 11.2 10.8067V11.1999Z" fill="#C3C5C4"/>
<path d="M4 13H12V14H4V13Z" fill="#C3C5C4"/>
<path d="M12 15H20V9H12V15ZM12.8 9.75H19.2V14.25H12.8V9.75Z" fill="#C3C5C4"/>
<path d="M12 4H20V5H12V4Z" fill="#C3C5C4"/>
<path d="M12 6H20V7H12V6Z" fill="#C3C5C4"/>
<path d="M12 8H18V8.5H12V8Z" fill="#C3C5C4"/>
</svg>
