<svg width="35" height="43" viewBox="0 0 35 43" fill="none" xmlns="http://www.w3.org/2000/svg">
<path d="M29.1457 3.58334H18.3958C17.4063 3.58334 16.6041 4.38548 16.6041 5.37498V16.1249C16.6041 17.1144 17.4063 17.9166 18.3958 17.9166H29.1457C30.1352 17.9166 30.9373 17.1144 30.9373 16.1249V5.37498C30.9373 4.38548 30.1352 3.58334 29.1457 3.58334ZM20.3845 16.1249C21.0318 14.2548 23.0726 13.2634 24.9427 13.9107C25.9813 14.2701 26.7975 15.0864 27.157 16.1249H20.3845ZM21.979 9.8541C21.979 8.8646 22.7812 8.06246 23.7707 8.06246C24.7602 8.06246 25.5624 8.8646 25.5624 9.8541C25.5624 10.8436 24.7602 11.6457 23.7707 11.6457C22.7812 11.6458 21.979 10.8437 21.979 9.8541ZM29.1457 16.1249H29.0292C28.6909 14.5424 27.6577 13.1966 26.2164 12.461C27.6651 11.1128 27.7466 8.84536 26.3983 7.39664C25.0502 5.94791 22.7827 5.86637 21.334 7.21465C19.8853 8.56284 19.8037 10.8302 21.152 12.279C21.2105 12.3418 21.2712 12.4025 21.334 12.461C19.8892 13.1945 18.8525 14.5407 18.5122 16.1249H18.3957V5.37498H29.1456V16.1249H29.1457Z" fill="#35A0CD"/>
<path d="M32.3171 0.000166999C32.3111 8.30151e-05 32.305 -9.68931e-07 32.2991 -9.68931e-07H8.54167C8.30358 -0.00134471 8.07472 0.0921295 7.90566 0.259762L0.738966 7.42646C0.57125 7.59552 0.477775 7.82437 0.479203 8.06247V40.7782C0.484074 42.0032 1.47593 42.995 2.70083 42.9998H32.2632C33.4951 43.0147 34.5057 42.0281 34.5205 40.7963C34.5206 40.7902 34.5206 40.7842 34.5207 40.7782V2.25749C34.5356 1.0257 33.549 0.0150322 32.3171 0.000166999ZM32.7291 40.7782C32.7291 41.0157 32.5366 41.2082 32.2991 41.2082H2.73669C2.50003 41.228 2.29217 41.0522 2.27235 40.8156C2.27134 40.8031 2.27084 40.7907 2.27084 40.7782V8.42981L7.64582 3.05483V6.76357C7.64103 6.9842 7.46332 7.16191 7.24269 7.16669H4.95832V8.95833H7.64582C8.68319 8.76088 9.43459 7.85536 9.43745 6.79935V1.79163H32.299C32.5365 1.79163 32.729 1.98412 32.729 2.22163V40.7782H32.7291Z" fill="#35A0CD"/>
<path d="M26.4582 21.4999H12.1249V23.2915H26.4582V21.4999Z" fill="#35A0CD"/>
<path d="M26.4581 25.979H8.54156V27.7707H26.4581V25.979Z" fill="#35A0CD"/>
<path d="M26.4581 30.4582H8.54156V32.2499H26.4581V30.4582Z" fill="#35A0CD"/>
<path d="M22.8749 34.9374H8.54156V36.729H22.8749V34.9374Z" fill="#35A0CD"/>
<path d="M26.4582 34.9374H24.6666V36.729H26.4582V34.9374Z" fill="#35A0CD"/>
</svg>
