<svg width="41" height="41" viewBox="0 0 41 41" fill="none" xmlns="http://www.w3.org/2000/svg">
<path d="M30.751 24.7708V2.5625C30.751 1.14728 29.6037 0 28.1885 0H7.68848C7.46194 8.00781e-05 7.24476 0.0900879 7.08461 0.250244L0.251221 7.08363C0.0910644 7.24379 0.000976562 7.46104 0.000976562 7.6875V38.4375C0.000976562 39.8527 1.14826 41 2.56348 41H28.1885C29.6037 41 30.751 39.8527 30.751 38.4375V36.7292H29.0427V38.4375C29.0427 38.9092 28.6602 39.2917 28.1885 39.2917H2.56348C2.09174 39.2917 1.70928 38.9092 1.70928 38.4375V8.04113L8.0421 1.70831H28.1885C28.6602 1.70831 29.0427 2.09076 29.0427 2.5625V24.7708H30.751Z" fill="#35A0CD"/>
<path d="M6.83337 0.854202V5.9792C6.83337 6.45094 6.45092 6.8334 5.97918 6.8334H4.27087V8.5417H5.97918C7.3944 8.5417 8.54168 7.39442 8.54168 5.9792V0.854202H6.83337Z" fill="#35A0CD"/>
<path d="M23.9167 11.1042H6.83332C6.36158 11.1042 5.97913 11.4866 5.97913 11.9584V29.0417C5.97913 29.5134 6.36158 29.8959 6.83332 29.8959H23.9166C24.3884 29.8959 24.7708 29.5134 24.7708 29.0417V11.9583C24.7708 11.4866 24.3884 11.1042 23.9167 11.1042ZM23.0625 28.1875H7.68751V12.8125H23.0625V28.1875Z" fill="#35A0CD"/>
<path d="M12.8126 11.9583H11.1042V23.9166H12.8126V11.9583Z" fill="#35A0CD"/>
<path d="M12.8126 26.4792H11.1042V29.0417H12.8126V26.4792Z" fill="#35A0CD"/>
<path d="M17.9376 18.7917H11.9584V20.5H17.9376V18.7917Z" fill="#35A0CD"/>
<path d="M23.9167 18.7917H20.5V20.5H23.9167V18.7917Z" fill="#35A0CD"/>
<path d="M40.7498 22.2613L38.3846 19.8961C38.0511 19.5627 37.5104 19.5627 37.1768 19.8961L24.167 32.9059C23.8335 33.2395 23.8335 33.7801 24.167 34.1138L26.5321 36.4789C26.6923 36.6391 26.9096 36.7292 27.136 36.7292C27.3626 36.7291 27.5797 36.6391 27.7399 36.4789L40.7497 23.4691C41.0832 23.1355 41.0832 22.5948 40.7498 22.2613ZM27.136 34.6672L25.9786 33.5098L37.7806 21.7078L38.938 22.8652L27.136 34.6672Z" fill="#35A0CD"/>
<path d="M25.6251 35.0208V33.3125H23.9167V35.875C23.9167 36.3467 24.2992 36.7292 24.7709 36.7292H27.3334V35.0209H25.6251V35.0208Z" fill="#35A0CD"/>
<path d="M8.54175 35.875H3.41675V37.5833H8.54175V35.875Z" fill="#35A0CD"/>
<path d="M11.9583 35.875H10.25V37.5833H11.9583V35.875Z" fill="#35A0CD"/>
</svg>
