<svg width="32" height="22" viewBox="0 0 32 22" fill="none" xmlns="http://www.w3.org/2000/svg">
<path d="M30.6816 0.708359H1.31838C0.59025 0.708359 0 1.29861 0 2.02674V19.9732C0 20.7014 0.59025 21.2916 1.31838 21.2916H30.6816C31.4097 21.2916 32 20.7014 32 19.9732V2.02674C32 1.29861 31.4097 0.708359 30.6816 0.708359ZM1.31838 1.74373H30.6816C30.8055 1.74434 30.9146 1.82544 30.9508 1.94391L16 11.283L1.04918 1.94391C1.08542 1.82544 1.19448 1.74434 1.31838 1.74373ZM1.03538 3.12423L11.7895 9.84037L1.03538 18.3719V3.12423ZM30.9646 19.9663C30.9646 20.1227 30.8379 20.2493 30.6816 20.2493H1.31838C1.16212 20.2493 1.03538 20.1226 1.03538 19.9663V19.6902L12.7213 10.4547L15.7239 12.3322C15.8926 12.4386 16.1074 12.4386 16.2761 12.3322L19.2787 10.4547L30.9646 19.6902V19.9663ZM30.9646 18.3719L20.1829 9.86798L30.9646 3.18636V18.3719Z" fill="#7E7E7E"/>
</svg>
