<svg width="25" height="25" viewBox="0 0 25 25" fill="none" xmlns="http://www.w3.org/2000/svg">
<path d="M16.875 15.4167C19.2708 13.9583 20.8333 11.3542 20.8333 8.33335C20.8333 3.75 17.0833 0 12.5 0C7.9167 0 4.16665 3.75 4.16665 8.33335C4.16665 11.3542 5.72913 13.9583 8.12495 15.4167C3.9583 16.9792 0.833301 20.625 0 25H2.08335C3.125 20.2083 7.39587 16.6667 12.5 16.6667C17.6041 16.6667 21.875 20.2083 22.9167 25H25C24.1667 20.5208 21.0417 16.875 16.875 15.4167ZM6.25 8.33335C6.25 4.89587 9.06252 2.08335 12.5 2.08335C15.9375 2.08335 18.75 4.89587 18.75 8.33335C18.75 11.7708 15.9375 14.5834 12.5 14.5834C9.06252 14.5834 6.25 11.7708 6.25 8.33335Z" fill="#969696"/>
</svg>
