<svg width="26" height="26" viewBox="0 0 26 26" fill="none" xmlns="http://www.w3.org/2000/svg">
<path d="M0.619366 25.1689L7.91336 17.5834C6.05293 15.7175 4.90034 13.1453 4.90034 10.3085C4.90034 4.6241 9.52444 0 15.2088 0C20.8932 0 25.5173 4.6241 25.5173 10.3085C25.5173 15.9929 20.8932 20.617 15.2088 20.617C12.7137 20.617 10.4237 19.7251 8.63889 18.2451L1.32722 25.8493C1.231 25.9499 1.10239 26 0.973289 26C0.850571 26 0.728342 25.9543 0.633112 25.863C0.43774 25.675 0.43185 25.3643 0.619366 25.1689ZM15.2088 19.6352C20.3518 19.6352 24.5356 15.4515 24.5356 10.3085C24.5356 5.16554 20.3518 0.981762 15.2088 0.981762C10.0659 0.981762 5.8821 5.16554 5.8821 10.3085C5.8821 15.4515 10.0664 19.6352 15.2088 19.6352Z" fill="#8A8A8A"/>
</svg>
