<svg width="16" height="25" viewBox="0 0 16 25" fill="none" xmlns="http://www.w3.org/2000/svg">
<path fill-rule="evenodd" clip-rule="evenodd" d="M8.375 23.4C8.375 23.4 15.375 11.5 15.375 8C15.375 4.13401 12.575 1 8.375 1C4.175 1 1.37534 4.5 1.375 8C1.37461 12.056 8.375 23.4 8.375 23.4ZM8.46834 11.2667C10.324 11.2667 11.8283 9.76234 11.8283 7.90666C11.8283 6.05099 10.324 4.54666 8.46834 4.54666C6.61267 4.54666 5.10834 6.05099 5.10834 7.90666C5.10834 9.76234 6.61267 11.2667 8.46834 11.2667Z" fill="white"/>
<path d="M8.375 23.4L7.9495 23.6626L8.38526 24.3687L8.80597 23.6535L8.375 23.4ZM1.375 8L0.875 7.99995L1.375 8ZM14.875 8C14.875 8.36707 14.7809 8.88245 14.594 9.5274C14.4092 10.165 14.1426 10.8994 13.8183 11.6939C13.1699 13.2826 12.3022 15.0838 11.4301 16.7843C10.5588 18.4834 9.68695 20.0745 9.03264 21.2414C8.70558 21.8246 8.43311 22.3015 8.24254 22.6322C8.14726 22.7976 8.07247 22.9265 8.02157 23.0138C7.99613 23.0575 7.97666 23.0908 7.96359 23.1131C7.95706 23.1243 7.95213 23.1327 7.94885 23.1383C7.94721 23.1411 7.94599 23.1432 7.94518 23.1445C7.94478 23.1452 7.94448 23.1457 7.94429 23.1461C7.94419 23.1462 7.94413 23.1463 7.94408 23.1464C7.94404 23.1465 7.94403 23.1465 8.375 23.4C8.80597 23.6535 8.80601 23.6534 8.80608 23.6533C8.80614 23.6532 8.80623 23.6531 8.80635 23.6529C8.80659 23.6525 8.80693 23.6519 8.80737 23.6511C8.80826 23.6496 8.80957 23.6474 8.8113 23.6444C8.81475 23.6385 8.81986 23.6298 8.82657 23.6184C8.83999 23.5954 8.85983 23.5615 8.88566 23.5172C8.9373 23.4285 9.0129 23.2983 9.10902 23.1314C9.30126 22.7978 9.57567 22.3176 9.90486 21.7305C10.5631 20.5567 11.4412 18.9541 12.3199 17.2407C13.1978 15.5287 14.0801 13.6987 14.7442 12.0718C15.0761 11.2584 15.3565 10.4889 15.5545 9.8058C15.7503 9.13005 15.875 8.50793 15.875 8H14.875ZM8.375 1.5C12.2832 1.5 14.875 4.39422 14.875 8H15.875C15.875 3.87379 12.8668 0.5 8.375 0.5V1.5ZM1.875 8.00005C1.87532 4.74306 4.48311 1.5 8.375 1.5V0.5C3.86689 0.5 0.875364 4.25694 0.875 7.99995L1.875 8.00005ZM8.375 23.4C8.8005 23.1374 8.8005 23.1374 8.80046 23.1374C8.80042 23.1373 8.80036 23.1372 8.80027 23.137C8.80008 23.1367 8.79979 23.1363 8.79939 23.1356C8.7986 23.1343 8.79739 23.1324 8.79576 23.1297C8.79251 23.1244 8.7876 23.1165 8.78109 23.1058C8.76808 23.0846 8.74866 23.0529 8.72327 23.0113C8.67248 22.928 8.59779 22.805 8.50262 22.6468C8.31227 22.3305 8.04005 21.8736 7.71326 21.3125C7.05945 20.1899 6.18833 18.652 5.31783 16.9891C4.44652 15.3247 3.57999 13.543 2.93256 11.931C2.27694 10.2987 1.87491 8.90854 1.875 8.00005L0.875 7.99995C0.874891 9.11947 1.34777 10.6683 2.00461 12.3037C2.66965 13.9595 3.55314 15.7743 4.43188 17.4529C5.31142 19.133 6.19038 20.6846 6.84913 21.8158C7.17862 22.3815 7.4533 22.8426 7.64578 23.1624C7.74203 23.3224 7.81774 23.4471 7.8695 23.5319C7.89538 23.5744 7.91527 23.6069 7.92874 23.6288C7.93548 23.6398 7.94062 23.6482 7.94409 23.6538C7.94583 23.6566 7.94715 23.6588 7.94806 23.6602C7.94851 23.661 7.94886 23.6615 7.9491 23.6619C7.94922 23.6621 7.94932 23.6623 7.94938 23.6624C7.94945 23.6625 7.9495 23.6626 8.375 23.4ZM11.3283 7.90666C11.3283 9.4862 10.0479 10.7667 8.46834 10.7667V11.7667C10.6002 11.7667 12.3283 10.0385 12.3283 7.90666H11.3283ZM8.46834 5.04666C10.0479 5.04666 11.3283 6.32713 11.3283 7.90666H12.3283C12.3283 5.77484 10.6002 4.04666 8.46834 4.04666V5.04666ZM5.60834 7.90666C5.60834 6.32713 6.88881 5.04666 8.46834 5.04666V4.04666C6.33652 4.04666 4.60834 5.77484 4.60834 7.90666H5.60834ZM8.46834 10.7667C6.88881 10.7667 5.60834 9.4862 5.60834 7.90666H4.60834C4.60834 10.0385 6.33652 11.7667 8.46834 11.7667V10.7667Z" fill="white"/>
</svg>
