<svg width="87" height="87" viewBox="0 0 87 87" fill="none" xmlns="http://www.w3.org/2000/svg">
<g clip-path="url(#clip0)">
<path d="M76.5 43.5C76.5 34.7479 73.0232 26.3542 66.8345 20.1655C60.6458 13.9768 52.2521 10.5 43.5 10.5C34.7479 10.5 26.3542 13.9768 20.1655 20.1655C13.9768 26.3542 10.5 34.7479 10.5 43.5C10.5 34.7479 13.9768 26.3542 20.1655 20.1655C26.3542 13.9768 34.7479 10.5 43.5 10.5C52.2521 10.5 60.6458 13.9768 66.8345 20.1655C73.0232 26.3542 76.5 34.7479 76.5 43.5Z" fill="white"/>
<path d="M43.5 0C34.8965 0 26.4863 2.55123 19.3327 7.33107C12.1792 12.1109 6.60367 18.9047 3.31126 26.8533C0.0188479 34.8019 -0.842597 43.5483 0.83586 51.9864C2.51432 60.4246 6.65729 68.1756 12.7409 74.2591C18.8245 80.3427 26.5754 84.4857 35.0136 86.1642C43.4518 87.8426 52.1982 86.9812 60.1467 83.6888C68.0953 80.3963 74.8891 74.8208 79.669 67.6673C84.4488 60.5138 87 52.1035 87 43.5C86.9974 31.9639 82.4135 20.901 74.2562 12.7438C66.099 4.58652 55.0361 0.00265106 43.5 0ZM43.5 66C39.0499 66 34.6998 64.6804 30.9997 62.2081C27.2996 59.7357 24.4157 56.2217 22.7127 52.1104C21.0098 47.999 20.5642 43.475 21.4324 39.1105C22.3005 34.7459 24.4434 30.7368 27.5901 27.5901C30.7368 24.4434 34.7459 22.3005 39.1105 21.4323C43.4751 20.5642 47.9991 21.0097 52.1104 22.7127C56.2217 24.4157 59.7358 27.2996 62.2081 30.9997C64.6804 34.6998 66 39.0499 66 43.5C66 46.4547 65.418 49.3806 64.2873 52.1104C63.1566 54.8402 61.4992 57.3206 59.4099 59.4099C57.3206 61.4992 54.8402 63.1566 52.1104 64.2873C49.3806 65.418 46.4548 66 43.5 66Z" fill="#88C346"/>
<path d="M47.0962 44.5908C47.0962 46.0654 46.791 47.1934 46.1807 47.9746C45.5703 48.7559 44.6768 49.1465 43.5 49.1465C42.3379 49.1465 41.4492 48.7632 40.834 47.9966C40.2188 47.23 39.9038 46.1313 39.8892 44.7007V42.7378C39.8892 41.2485 40.1968 40.1182 40.812 39.3467C41.4321 38.5752 42.3232 38.1895 43.4854 38.1895C44.6475 38.1895 45.5361 38.5728 46.1514 39.3394C46.7666 40.1011 47.0815 41.1973 47.0962 42.6279V44.5908ZM44.9795 42.4375C44.9795 41.5537 44.8574 40.9116 44.6133 40.5112C44.374 40.106 43.998 39.9033 43.4854 39.9033C42.9873 39.9033 42.6187 40.0962 42.3794 40.4819C42.145 40.8628 42.0205 41.4609 42.0059 42.2764V44.8691C42.0059 45.7383 42.123 46.3853 42.3574 46.8101C42.5967 47.23 42.9775 47.4399 43.5 47.4399C44.0176 47.4399 44.3911 47.2373 44.6206 46.832C44.8501 46.4268 44.9697 45.8066 44.9795 44.9717V42.4375Z" fill="#88C346"/>
</g>
<defs>
<clipPath id="clip0">
<rect width="87" height="87" fill="white"/>
</clipPath>
</defs>
</svg>
