<svg width="40" height="48" viewBox="0 0 40 48" fill="none" xmlns="http://www.w3.org/2000/svg">
<path d="M38.9656 46.6344L36.8 44.4688V16.4688L36.4024 16.0712L32.8 12.4688V0H0.799988V41.6H4.79999V45.6H35.6688L37.8344 47.7656C37.9904 47.9216 38.1952 48 38.4 48C38.6048 48 38.8096 47.9216 38.9656 47.7656C39.2784 47.4528 39.2784 46.9472 38.9656 46.6344ZM34.0688 16H24.8V6.7312L32.8 14.7312L34.0688 16ZM2.39999 40V1.6H31.2V10.8688L24.7288 4.3976L24.3312 4H4.79999V40H2.39999ZM6.39999 44V41.6V5.6H23.2V17.6H35.2V42.8688L29.1888 36.8576C30.5808 35.2096 31.4248 33.084 31.4248 30.7624C31.4248 25.5448 27.18 21.3 21.9624 21.3C16.7448 21.3 12.5 25.5448 12.5 30.7624C12.5 35.98 16.7448 40.2248 21.9624 40.2248C24.284 40.2248 26.4096 39.3808 28.0576 37.9888L34.0688 44H6.39999ZM21.9624 38.6248C17.6272 38.6248 14.1 35.0976 14.1 30.7624C14.1 26.4272 17.6272 22.9 21.9624 22.9C26.2976 22.9 29.8248 26.4272 29.8248 30.7624C29.8248 35.0976 26.2976 38.6248 21.9624 38.6248Z" fill="#35A0CD"/>
</svg>
