<svg width="46" height="44" viewBox="0 0 46 44" fill="none" xmlns="http://www.w3.org/2000/svg">
<path d="M45.7651 16.9659C45.58 16.7501 45.3098 16.6257 45.0241 16.6257H42.9971V5.69756C42.9971 4.94895 42.3883 4.34008 41.6396 4.34008H18.0941L16.1861 1.1606C15.9427 0.753661 15.4966 0.501053 15.0221 0.501053H4.42795C3.68011 0.501821 3.07124 1.11069 3.07124 1.85853V16.625H0.975127C0.691038 16.625 0.421539 16.7486 0.236497 16.9636C0.0506885 17.1786 -0.0322345 17.4634 0.0107627 17.7467L3.78606 42.6651C3.85593 43.1396 4.27055 43.4982 4.75119 43.4982H41.2481C41.7287 43.4982 42.1433 43.1396 42.2124 42.6682L45.9885 17.7498C46.0323 17.468 45.9509 17.1824 45.7651 16.9659ZM4.60685 2.03743H14.9215L16.8295 5.21692C17.0729 5.62385 17.519 5.87646 17.9935 5.87646H41.4615V16.6257H40.6937V13.5545H39.9259V11.2511H39.1581V8.94768H6.91026V11.2511H6.14246V13.5545H5.37465V16.6257H4.60685V2.03743ZM6.91026 15.0901H39.1581V16.6257H6.91026V15.0901ZM7.67807 12.7867H38.3903V13.5545H7.67807V12.7867ZM37.6225 11.2511H8.44588V10.4833H37.6225V11.2511ZM40.7667 41.9633H5.23261L1.62699 18.1614H3.07124H5.37465H40.6937H42.9971H44.373L40.7667 41.9633Z" fill="#35A0CD"/>
</svg>
