<svg width="87" height="87" viewBox="0 0 87 87" fill="none" xmlns="http://www.w3.org/2000/svg">
<path d="M43.5 0C34.8965 0 26.4863 2.55123 19.3327 7.33107C12.1792 12.1109 6.60367 18.9047 3.31126 26.8533C0.0188479 34.8019 -0.842597 43.5483 0.83586 51.9864C2.51432 60.4246 6.65729 68.1756 12.7409 74.2591C18.8245 80.3427 26.5754 84.4857 35.0136 86.1642C43.4518 87.8426 52.1982 86.9812 60.1467 83.6888C68.0953 80.3963 74.8891 74.8208 79.669 67.6673C84.4488 60.5138 87 52.1035 87 43.5C86.9974 31.9639 82.4135 20.901 74.2562 12.7438C66.099 4.58652 55.0361 0.00265106 43.5 0ZM43.5 66C39.0499 66 34.6998 64.6804 30.9997 62.2081C27.2996 59.7357 24.4157 56.2217 22.7127 52.1104C21.0098 47.999 20.5642 43.475 21.4324 39.1105C22.3005 34.7459 24.4434 30.7368 27.5901 27.5901C30.7368 24.4434 34.7459 22.3005 39.1105 21.4323C43.4751 20.5642 47.9991 21.0097 52.1104 22.7127C56.2217 24.4157 59.7358 27.2996 62.2081 30.9997C64.6804 34.6998 66 39.0499 66 43.5C66 46.4547 65.418 49.3806 64.2873 52.1104C63.1566 54.8402 61.4992 57.3206 59.4099 59.4099C57.3206 61.4992 54.8402 63.1566 52.1104 64.2873C49.3806 65.418 46.4548 66 43.5 66Z" fill="#88C346"/>
</svg>
