<svg width="25" height="20" viewBox="0 0 25 20" fill="none" xmlns="http://www.w3.org/2000/svg">
<path d="M22.0703 20H2.92969C1.31416 20 0 18.6338 0 16.9543V3.04569C0 1.3662 1.31416 0 2.92969 0H22.0703C23.6858 0 25 1.3662 25 3.04569V16.9543C25 18.6338 23.6858 20 22.0703 20ZM2.92969 2.03046C2.39124 2.03046 1.95312 2.48592 1.95312 3.04569V16.9543C1.95312 17.5141 2.39124 17.9695 2.92969 17.9695H22.0703C22.6088 17.9695 23.0469 17.5141 23.0469 16.9543V3.04569C23.0469 2.48592 22.6088 2.03046 22.0703 2.03046H2.92969ZM21.0938 4.11168H16.1133V6.14213H19.1406V9.3401H21.0938V4.11168ZM8.83789 13.8579H5.85938V10.6599H3.90625V15.8883H8.83789V13.8579Z" fill="#C3C5C4"/>
</svg>
